<?xml version="1.0" encoding="utf-8"?>
<!-- Generator: Adobe Illustrator 18.0.0, SVG Export Plug-In . SVG Version: 6.00 Build 0)  -->
<!DOCTYPE svg PUBLIC "-//W3C//DTD SVG 1.1//EN" "http://www.w3.org/Graphics/SVG/1.1/DTD/svg11.dtd">
<svg version="1.1" id="Layer_1" xmlns:sketch="http://www.bohemiancoding.com/sketch/ns"
	 xmlns="http://www.w3.org/2000/svg" xmlns:xlink="http://www.w3.org/1999/xlink" x="0px" y="0px" viewBox="0 0 64 49"
	 enable-background="new 0 0 64 49" xml:space="preserve">
<title>2.4 Mobile—Profile About</title>
<desc>Created with Sketch.</desc>
<g id="Profile-Mobile" sketch:type="MSPage">
	<g id="_x31_72_x5F_comment-2" transform="translate(296.000000, 706.000000)" sketch:type="MSLayerGroup">
		<path id="Shape" sketch:type="MSShapeGroup" fill="#00B4B1" d="M-286.7-660.7c-0.6,0-1.1-0.4-1.2-0.9c-0.2-0.5,0.1-1.1,0.6-1.4
			c4.3-2.5,6-6.2,6.6-7.9c-4.6-3.5-7.3-8.4-7.3-13.4c0-2.6,0.7-5,1.9-7.4c1.2-2.2,3-4.2,5.2-5.9c4.5-3.5,10.5-5.4,16.8-5.4
			c6.3,0,12.3,1.9,16.8,5.4c2.2,1.7,4,3.7,5.2,5.9c1.3,2.3,1.9,4.8,1.9,7.4s-0.7,5-1.9,7.4c-1.2,2.2-3,4.2-5.2,5.9
			c-4.5,3.5-10.5,5.4-16.8,5.4c-2.6,0-5.2-0.3-7.6-1c-1.1,0.7-3.1,2-5.5,3.2C-280.9-661.6-284.1-660.7-286.7-660.7L-286.7-660.7z
			 M-264.1-700.5c-11.8,0-21.4,7.3-21.4,16.2c0,4.5,2.5,8.9,6.9,11.9c0.4,0.3,0.6,0.8,0.5,1.3c-0.3,1.1-1.3,4.1-4,6.9
			c3.3-1.1,6.8-3.1,9.4-4.9c0.3-0.2,0.7-0.3,1.1-0.2c2.4,0.7,4.9,1,7.5,1c11.8,0,21.4-7.3,21.4-16.2S-252.3-700.5-264.1-700.5
			L-264.1-700.5z"/>
	</g>
</g>
</svg>
