<?xml version="1.0" encoding="utf-8"?>
<!-- Generator: Adobe Illustrator 18.0.0, SVG Export Plug-In . SVG Version: 6.00 Build 0)  -->
<!DOCTYPE svg PUBLIC "-//W3C//DTD SVG 1.1//EN" "http://www.w3.org/Graphics/SVG/1.1/DTD/svg11.dtd">
<svg version="1.1" id="Layer_1" xmlns:sketch="http://www.bohemiancoding.com/sketch/ns"
	 xmlns="http://www.w3.org/2000/svg" xmlns:xlink="http://www.w3.org/1999/xlink" x="0px" y="0px" width="22px" height="22px"
	 viewBox="0 0 22 22" enable-background="new 0 0 22 22" xml:space="preserve">
<title>121_user 2</title>
<desc>Created with Sketch.</desc>
<g id="Profile_x2014_Desktop-_x26_-ipad" sketch:type="MSPage">
	<g id="_x31_.1-Profile-Home" transform="translate(-495.000000, -337.000000)" sketch:type="MSArtboardGroup">
		<g id="_x31_21_x5F_user-2" transform="translate(18.000000, 10.000000)" sketch:type="MSShapeGroup">
			<g id="Shape-_x2B_-Shape">
				<path id="Shape" fill="#FFFFFF" d="M488.1,339.8c-3.5,0-6.4-2.9-6.4-6.4s2.8-6.4,6.4-6.4s6.4,2.9,6.4,6.4
					S491.6,339.8,488.1,339.8L488.1,339.8z M488.1,328.1c-2.9,0-5.3,2.4-5.3,5.3s2.4,5.3,5.3,5.3s5.3-2.4,5.3-5.3
					S491,328.1,488.1,328.1L488.1,328.1z"/>
				<path id="Shape_1_" fill="#FFFFFF" d="M497.1,348.3h-18c-0.9,0-1.6-0.7-1.6-1.6c0-0.1,0-1.6,1.4-3c0.8-0.8,1.9-1.5,3.2-2
					c1.6-0.6,3.6-0.9,6-0.9c2.4,0,4.4,0.3,6,0.9c1.3,0.5,2.4,1.1,3.2,2c1.4,1.5,1.4,3,1.4,3C498.7,347.6,498,348.3,497.1,348.3
					L497.1,348.3z M488.1,341.9c-9.4,0-9.5,4.7-9.5,4.8c0,0.3,0.2,0.5,0.5,0.5h18c0.3,0,0.5-0.2,0.5-0.5c0-0.1,0-1.2-1.2-2.4
					C495.4,343.2,493,341.9,488.1,341.9L488.1,341.9z"/>
			</g>
		</g>
	</g>
</g>
</svg>
