<?xml version="1.0" encoding="UTF-8" standalone="no"?>
<svg width="62px" height="61px" viewBox="0 0 62 61" version="1.1" xmlns="http://www.w3.org/2000/svg" xmlns:xlink="http://www.w3.org/1999/xlink" xmlns:sketch="http://www.bohemiancoding.com/sketch/ns">
    <!-- Generator: Sketch 3.3.1 (12005) - http://www.bohemiancoding.com/sketch -->
    <title>Shape</title>
    <desc>Created with Sketch.</desc>
    <defs></defs>
    <g id="Profile-Mobile" stroke="none" stroke-width="1" fill="none" fill-rule="evenodd" sketch:type="MSPage">
        <path d="M61.0541253,58.3301154 L33.157126,29.7183999 L59.5291158,2.67076441 C60.124632,2.05999117 60.124632,1.06992852 59.5291158,0.458373243 C58.9335996,-0.153182038 57.9682686,-0.152399998 57.3727523,0.458373243 L31.0007625,27.5060088 L4.62877268,0.458373243 C4.03325646,-0.152399998 3.06792542,-0.152399998 2.4716467,0.458373243 C1.87536797,1.06914648 1.87613048,2.05920913 2.4716467,2.67076441 L28.8436365,29.7183999 L0.946637166,58.3301154 C0.351120945,58.9408887 0.351120945,59.9309513 0.946637166,60.5417246 C1.24477653,60.8467202 1.63441647,61 2.02481891,61 C2.41522135,61 2.80562379,60.8475022 3.10300064,60.5417246 L31,31.930009 L58.8969994,60.5417246 C59.1943762,60.8467202 59.5847787,61 59.9751811,61 C60.3655835,61 60.755986,60.8475022 61.0533628,60.5417246 C61.6488791,59.9309513 61.6488791,58.9408887 61.0533628,58.3301154 L61.0541253,58.3301154 Z" id="Shape" fill="#FFFFFF" sketch:type="MSShapeGroup"></path>
    </g>
</svg>