<?xml version="1.0" encoding="utf-8"?>
<!-- Generator: Adobe Illustrator 18.0.0, SVG Export Plug-In . SVG Version: 6.00 Build 0)  -->
<!DOCTYPE svg PUBLIC "-//W3C//DTD SVG 1.1//EN" "http://www.w3.org/Graphics/SVG/1.1/DTD/svg11.dtd">
<svg version="1.1" id="Layer_1" xmlns:sketch="http://www.bohemiancoding.com/sketch/ns"
	 xmlns="http://www.w3.org/2000/svg" xmlns:xlink="http://www.w3.org/1999/xlink" x="0px" y="0px" width="23px" height="22px"
	 viewBox="0 0 23 22" enable-background="new 0 0 23 22" xml:space="preserve">
<title>Shape 2</title>
<desc>Created with Sketch.</desc>
<g id="Profile_x2014_Desktop-_x26_-ipad" sketch:type="MSPage">
	<path id="Shape-2" sketch:type="MSShapeGroup" fill="#FFFFFF" d="M22.6,21L12.2,10.7L22.1,1c0.2-0.2,0.2-0.6,0-0.8
		c-0.2-0.2-0.6-0.2-0.8,0l-9.9,9.8L1.5,0.2C1.3-0.1,1-0.1,0.7,0.2C0.5,0.4,0.5,0.7,0.7,1l9.9,9.8L0.2,21c-0.2,0.2-0.2,0.6,0,0.8
		C0.3,21.9,0.4,22,0.6,22s0.3-0.1,0.4-0.2l10.4-10.3l10.4,10.3c0.1,0.1,0.3,0.2,0.4,0.2s0.3-0.1,0.4-0.2
		C22.9,21.6,22.9,21.3,22.6,21L22.6,21z"/>
</g>
</svg>
