<?xml version="1.0" encoding="UTF-8" standalone="no"?>
<svg width="31px" height="26px" viewBox="0 0 31 26" version="1.1" xmlns="http://www.w3.org/2000/svg" xmlns:xlink="http://www.w3.org/1999/xlink" xmlns:sketch="http://www.bohemiancoding.com/sketch/ns">
    <!-- Generator: Sketch 3.3 (11970) - http://www.bohemiancoding.com/sketch -->
    <title>1.4 Profile—About</title>
    <desc>Created with Sketch.</desc>
    <defs>
        <filter x="-50%" y="-50%" width="200%" height="200%" filterUnits="objectBoundingBox" id="filter-1">
            <feOffset dx="0" dy="3" in="SourceAlpha" result="shadowOffsetOuter1"></feOffset>
            <feGaussianBlur stdDeviation="1.5" in="shadowOffsetOuter1" result="shadowBlurOuter1"></feGaussianBlur>
            <feColorMatrix values="0 0 0 0 0   0 0 0 0 0   0 0 0 0 0  0 0 0 0.07 0" in="shadowBlurOuter1" type="matrix" result="shadowMatrixOuter1"></feColorMatrix>
            <feMerge>
                <feMergeNode in="shadowMatrixOuter1"></feMergeNode>
                <feMergeNode in="SourceGraphic"></feMergeNode>
            </feMerge>
        </filter>
    </defs>
    <g id="Profile—Desktop-&amp;-ipad" stroke="none" stroke-width="1" fill="none" fill-rule="evenodd" sketch:type="MSPage">
        <g id="1.4-Profile—About" sketch:type="MSArtboardGroup" transform="translate(-347.000000, -194.000000)">
            <rect id="Rectangle-9" fill="#F0F2F2" filter="url(#filter-1)" sketch:type="MSShapeGroup" x="-16" y="11" width="2560" height="506"></rect>
            <g id="371_circle-plus" sketch:type="MSLayerGroup" transform="translate(364.000000, 207.322330) rotate(-315.000000) translate(-364.000000, -207.322330) translate(351.500000, 194.822330)" fill="#4A4A4A">
                <path d="M20.5638112,4.48190789 C18.3232393,2.21185476 15.344031,0.961538462 12.1753247,0.961538462 C9.00661838,0.961538462 6.02741009,2.21185476 3.78683816,4.48190789 C1.54626623,6.75196103 0.312187812,9.77036943 0.312187812,12.9807692 C0.312187812,16.191169 1.54626623,19.2095774 3.78683816,21.4796306 C6.02741009,23.7496837 9.00661838,25 12.1753247,25 C15.344031,25 18.3232393,23.7496837 20.5638112,21.4796306 C22.8043831,19.2095774 24.0384615,16.191169 24.0384615,12.9807692 C24.0384615,9.77036943 22.8043831,6.75196103 20.5638112,4.48190789 L20.5638112,4.48190789 Z M12.1753247,23.7348178 C6.32242757,23.7348178 1.56093906,18.9106781 1.56093906,12.9807692 C1.56093906,7.05086032 6.32242757,2.22672065 12.1753247,2.22672065 C18.0282218,2.22672065 22.7897103,7.05086032 22.7897103,12.9807692 C22.7897103,18.9106781 18.0282218,23.7348178 12.1753247,23.7348178 L12.1753247,23.7348178 Z" id="Shape" sketch:type="MSShapeGroup"></path>
                <path d="M19.6678322,12.3481781 L12.7997003,12.3481781 L12.7997003,5.38967611 C12.7997003,5.04016953 12.5202922,4.75708502 12.1753247,4.75708502 C11.8303571,4.75708502 11.5509491,5.04016953 11.5509491,5.38967611 L11.5509491,12.3481781 L4.68281718,12.3481781 C4.33784965,12.3481781 4.05844156,12.6312627 4.05844156,12.9807692 C4.05844156,13.3302758 4.33784965,13.6133603 4.68281718,13.6133603 L11.5509491,13.6133603 L11.5509491,20.5718623 C11.5509491,20.9213689 11.8303571,21.2044534 12.1753247,21.2044534 C12.5202922,21.2044534 12.7997003,20.9213689 12.7997003,20.5718623 L12.7997003,13.6133603 L19.6678322,13.6133603 C20.0127997,13.6133603 20.2922078,13.3302758 20.2922078,12.9807692 C20.2922078,12.6312627 20.0127997,12.3481781 19.6678322,12.3481781 L19.6678322,12.3481781 Z" id="Shape" sketch:type="MSShapeGroup"></path>
            </g>
        </g>
    </g>
</svg>