<?xml version="1.0" encoding="utf-8"?>
<!-- Generator: Adobe Illustrator 18.0.0, SVG Export Plug-In . SVG Version: 6.00 Build 0)  -->
<!DOCTYPE svg PUBLIC "-//W3C//DTD SVG 1.1//EN" "http://www.w3.org/Graphics/SVG/1.1/DTD/svg11.dtd">
<svg version="1.1" id="Layer_1" xmlns:sketch="http://www.bohemiancoding.com/sketch/ns"
	 xmlns="http://www.w3.org/2000/svg" xmlns:xlink="http://www.w3.org/1999/xlink" x="0px" y="0px" viewBox="0 0 94 90"
	 enable-background="new 0 0 94 90" xml:space="preserve">
<title>3.2 Desktop—Testimonial form</title>
<desc>Created with Sketch.</desc>
<g id="Imported-Layers-7" transform="translate(863.000000, 479.000000)" sketch:type="MSLayerGroup">
	<path id="Fill-1" sketch:type="MSShapeGroup" fill="#0063AC" d="M-780.7-471.7v59.4c0,6.5-29,22-35.1,22.5c-0.1,0-0.1,0-0.1,0
		c-0.1,0-0.1,0-0.2,0c-6.1-0.6-35.1-16-35.1-22.5v-59.4c0,0,13.7-6.4,35.1-6.4h0.3C-794.4-478.1-780.7-471.7-780.7-471.7"/>
	<path id="Fill-2" sketch:type="MSShapeGroup" fill="#B2D0E6" d="M-792.2-441.9c0-10.4-10.6-18.8-23.7-18.9v0c0,0-0.1,0-0.1,0
		s-0.1,0-0.1,0h0v0c-13.1,0.1-23.7,8.5-23.7,18.9c0,6.7,4.5,12.6,11.2,16l-3.7,10.5l11.8-7.9c1.4,0.2,2.9,0.3,4.4,0.4v0h0
		c0,0,0.1,0,0.1,0c0,0,0.1,0,0.1,0v0C-802.8-423.1-792.2-431.6-792.2-441.9"/>
</g>
</svg>
