<?xml version="1.0" encoding="utf-8"?>
<!-- Generator: Adobe Illustrator 18.0.0, SVG Export Plug-In . SVG Version: 6.00 Build 0)  -->
<!DOCTYPE svg PUBLIC "-//W3C//DTD SVG 1.1//EN" "http://www.w3.org/Graphics/SVG/1.1/DTD/svg11.dtd">
<svg version="1.1" id="Layer_1" xmlns:sketch="http://www.bohemiancoding.com/sketch/ns"
	 xmlns="http://www.w3.org/2000/svg" xmlns:xlink="http://www.w3.org/1999/xlink" x="0px" y="0px" width="26px" height="20px"
	 viewBox="0 0 26 20" enable-background="new 0 0 26 20" xml:space="preserve">
<title>123_users2</title>
<desc>Created with Sketch.</desc>
<g id="Profile_x2014_Desktop-_x26_-ipad" sketch:type="MSPage">
	<g id="_x31_.1-Profile-Home" transform="translate(-1115.000000, -335.000000)" sketch:type="MSArtboardGroup">
		<g id="_x31_23_x5F_users2" transform="translate(18.172316, 12.332120)" sketch:type="MSShapeGroup">
			<path id="Shape" fill="#FFFFFF" d="M1120.2,342.3h-13.8c-1,0-1.9-0.9-1.9-1.9c0-0.1,0-1.5,1.2-3c0.7-0.8,1.6-1.5,2.7-2
				c1.3-0.6,3-0.9,4.9-0.9c1.9,0,3.6,0.3,4.9,0.9c1.1,0.5,2,1.1,2.7,2c1.1,1.4,1.2,2.9,1.2,3C1122,341.4,1121.2,342.3,1120.2,342.3
				L1120.2,342.3z M1105.8,340.4c0,0.4,0.3,0.6,0.6,0.6h13.8c0.3,0,0.6-0.3,0.6-0.6c0,0,0-1.2-0.9-2.2c-1.2-1.5-3.5-2.3-6.6-2.3
				s-5.4,0.8-6.6,2.3C1105.8,339.2,1105.8,340.3,1105.8,340.4L1105.8,340.4z"/>
			<path id="Shape_1_" fill="#FFFFFF" d="M1113.3,333.3c-2.8,0-5-2.3-5-5.2s2.2-5.2,5-5.2s5,2.3,5,5.2S1116,333.3,1113.3,333.3
				L1113.3,333.3z M1113.3,324.3c-2.1,0-3.8,1.7-3.8,3.9c0,2.1,1.7,3.9,3.8,3.9c2.1,0,3.8-1.7,3.8-3.9
				C1117,326,1115.3,324.3,1113.3,324.3L1113.3,324.3z"/>
			<path id="Shape_2_" fill="#FFFFFF" d="M1102.6,342.3h-3.8c-1,0-1.9-0.9-1.9-1.9c0,0,0-1.2,0.8-2.3c0.5-0.6,1.1-1.2,1.9-1.5
				c1-0.4,2.1-0.7,3.5-0.7c0.2,0,0.4,0,0.7,0c0.3,0,0.6,0.3,0.6,0.7c0,0.4-0.3,0.6-0.7,0.6c-0.2,0-0.4,0-0.6,0c-4.9,0-5,3.1-5,3.2
				c0,0.4,0.3,0.6,0.6,0.6h3.8c0.3,0,0.6,0.3,0.6,0.6C1103.3,342,1103,342.3,1102.6,342.3L1102.6,342.3z"/>
			<path id="Shape_3_" fill="#FFFFFF" d="M1103.3,334.6c-2.1,0-3.8-1.7-3.8-3.9s1.7-3.9,3.8-3.9c2.1,0,3.8,1.7,3.8,3.9
				S1105.3,334.6,1103.3,334.6L1103.3,334.6z M1103.3,328.2c-1.4,0-2.5,1.2-2.5,2.6s1.1,2.6,2.5,2.6c1.4,0,2.5-1.2,2.5-2.6
				S1104.6,328.2,1103.3,328.2L1103.3,328.2z"/>
		</g>
	</g>
</g>
</svg>
