<?xml version="1.0" encoding="utf-8"?>
<!-- Generator: Adobe Illustrator 18.0.0, SVG Export Plug-In . SVG Version: 6.00 Build 0)  -->
<!DOCTYPE svg PUBLIC "-//W3C//DTD SVG 1.1//EN" "http://www.w3.org/Graphics/SVG/1.1/DTD/svg11.dtd">
<svg version="1.1" id="Layer_1" xmlns:sketch="http://www.bohemiancoding.com/sketch/ns"
	 xmlns="http://www.w3.org/2000/svg" xmlns:xlink="http://www.w3.org/1999/xlink" x="0px" y="0px" width="24px" height="15px"
	 viewBox="0 0 24 15" enable-background="new 0 0 24 15" xml:space="preserve">
<title>enveloper 2</title>
<desc>Created with Sketch.</desc>
<g id="Profile_x2014_Desktop-_x26_-ipad" sketch:type="MSPage">
	<g id="_x31_.1-Profile-Home" transform="translate(-657.000000, -341.000000)" sketch:type="MSArtboardGroup">
		<path id="enveloper-2" sketch:type="MSShapeGroup" fill="#FFFFFF" d="M678.7,341.2H659c-1,0-1.8,0.8-1.8,1.8v11
			c0,1,0.8,1.8,1.8,1.8h19.7c1,0,1.8-0.8,1.8-1.8v-11C680.5,342,679.7,341.2,678.7,341.2L678.7,341.2z M678.7,342.4c0,0,0.1,0,0.1,0
			l-9.3,6.1c-0.4,0.2-1,0.2-1.4,0l-9.3-6.1c0,0,0.1,0,0.1,0H678.7L678.7,342.4z M678.7,354.6H659c-0.3,0-0.6-0.3-0.6-0.6v-10.5
			l9.1,6c0.4,0.3,0.9,0.4,1.4,0.4c0.5,0,1-0.1,1.4-0.4l9.1-6V354C679.3,354.3,679,354.6,678.7,354.6L678.7,354.6z"/>
	</g>
</g>
</svg>
