<?xml version="1.0" encoding="utf-8"?>
<!-- Generator: Adobe Illustrator 18.0.0, SVG Export Plug-In . SVG Version: 6.00 Build 0)  -->
<!DOCTYPE svg PUBLIC "-//W3C//DTD SVG 1.1//EN" "http://www.w3.org/Graphics/SVG/1.1/DTD/svg11.dtd">
<svg version="1.1" id="Layer_1" xmlns:sketch="http://www.bohemiancoding.com/sketch/ns"
	 xmlns="http://www.w3.org/2000/svg" xmlns:xlink="http://www.w3.org/1999/xlink" x="0px" y="0px" viewBox="0 0 76 88"
	 enable-background="new 0 0 76 88" xml:space="preserve">
<title>Imported Layers 6</title>
<desc>Created with Sketch.</desc>
<g id="Imported-Layers-6" transform="translate(676.907605, 472.000000)" sketch:type="MSLayerGroup">
	<path id="Fill-1" sketch:type="MSShapeGroup" fill="#9C74B3" d="M-601-448.8c0,52.3-36.2,63.8-37.5,64.2h0c0,0-37.5-10.9-37.5-64.2
		c0,0,25.1,1.2,37.5-22.5c0,0,0,0,0,0C-626.1-447.6-601-448.8-601-448.8"/>
	<path id="Fill-2" sketch:type="MSShapeGroup" fill="#E2D6E9" d="M-638.6-446.8c-7.2,0-13,5.8-13,12.9c0,9.3,6.5,10.3,6.5,17.6
		c0,0.9,0.9,1.7,1.7,1.7h9.5c0.9,0,1.7-0.9,1.7-1.7c0-7.3,6.5-8.3,6.5-17.6C-625.6-441.1-631.4-446.8-638.6-446.8"/>
	<path id="Fill-3" sketch:type="MSShapeGroup" fill="#E2D6E9" d="M-634.1-413.3h-9.1c-0.6,0-1.1,0.5-1.1,1.1c0,0.6,0.5,1.1,1.1,1.1
		h9.1c0.6,0,1.1-0.5,1.1-1.1C-633-412.8-633.5-413.3-634.1-413.3"/>
	<path id="Fill-4" sketch:type="MSShapeGroup" fill="#E2D6E9" d="M-634.1-409.9h-9.1c-0.6,0-1.1,0.5-1.1,1.1c0,0.6,0.5,1.1,1.1,1.1
		h9.1c0.6,0,1.1-0.5,1.1-1.1C-633-409.4-633.5-409.9-634.1-409.9"/>
	<path id="Fill-5" sketch:type="MSShapeGroup" fill="#E2D6E9" d="M-643-406.4c0.8,1.5,2.5,2.6,4.4,2.6c1.9,0,3.5-1,4.4-2.6H-643"/>
</g>
</svg>
