<?xml version="1.0" encoding="UTF-8" standalone="no"?>
<svg width="60px" height="50px" viewBox="0 0 60 50" version="1.1" xmlns="http://www.w3.org/2000/svg" xmlns:xlink="http://www.w3.org/1999/xlink" xmlns:sketch="http://www.bohemiancoding.com/sketch/ns">
    <!-- Generator: Sketch 3.3 (11970) - http://www.bohemiancoding.com/sketch -->
    <title>3.7 Desktop—Testimonial form end private client</title>
    <desc>Created with Sketch.</desc>
    <defs></defs>
    <g id="Welcome" stroke="none" stroke-width="1" fill="none" fill-rule="evenodd" sketch:type="MSPage">
        <g id="3.7-Desktop—Testimonial-form-end-private-client" sketch:type="MSArtboardGroup" transform="translate(-870.348196, -905.000000)">
            <rect id="Rectangle-19" fill="#F0F0F0" sketch:type="MSShapeGroup" x="1" y="0" width="1800" height="1012"></rect>
            <g id="up-arrow" sketch:type="MSLayerGroup" transform="translate(899.500000, 931.000000) rotate(-180.000000) translate(-899.500000, -931.000000) translate(877.500000, 909.000000)" fill="#00B4B1">
                <path d="M37.4530048,7.02554549 C41.5073197,11.0798604 43.7403846,16.4707378 43.7403846,22.2045118 C43.7403846,27.9382859 41.5073197,33.3291633 37.4530048,37.3834782 C33.3986899,41.4377931 28.0078125,43.670858 22.2740385,43.670858 C16.5402644,43.670858 11.149387,41.4377931 7.09507212,37.3834782 C3.04075721,33.3291633 0.807692308,27.9382859 0.807692308,22.2045118 C0.807692308,16.4707378 3.04075721,11.0798604 7.09507212,7.02554549 C11.149387,2.97123058 16.5402644,0.73816568 22.2740385,0.73816568 C28.0078125,0.73816568 33.3986899,2.97123058 37.4530048,7.02554549 L37.4530048,7.02554549 L37.4530048,7.02554549 Z M3.06730769,22.2045118 C3.06730769,32.7953291 11.6832212,41.4112426 22.2740385,41.4112426 C32.8648558,41.4112426 41.4807692,32.7953291 41.4807692,22.2045118 C41.4807692,11.6136945 32.8648558,2.99778107 22.2740385,2.99778107 C11.6832212,2.99778107 3.06730769,11.6136945 3.06730769,22.2045118 L3.06730769,22.2045118 L3.06730769,22.2045118 Z" id="Shape" sketch:type="MSShapeGroup"></path>
                <path d="M23.0728125,8.97785318 L32.111274,18.0163147 C32.5524639,18.4575046 32.5524639,19.1726729 32.111274,19.6138628 C31.6700841,20.0550527 30.9549159,20.0550527 30.513726,19.6138628 L23.4038462,12.503983 L23.4038462,35.7622041 C23.4038462,36.3864229 22.8982572,36.8920118 22.2740385,36.8920118 C21.6498197,36.8920118 21.1442308,36.3864229 21.1442308,35.7622041 L21.1442308,12.503983 L14.034351,19.6138628 C13.5931611,20.0550527 12.8779928,20.0550527 12.4368029,19.6138628 C12.2164904,19.3935503 12.1057692,19.1043195 12.1057692,18.8150888 C12.1057692,18.525858 12.2159255,18.2366272 12.4368029,18.0163147 L21.4752644,8.97785318 C21.9164543,8.53666328 22.6316226,8.53666328 23.0728125,8.97785318 L23.0728125,8.97785318 L23.0728125,8.97785318 Z" id="Shape" sketch:type="MSShapeGroup"></path>
            </g>
        </g>
    </g>
</svg>