<?xml version="1.0" encoding="utf-8"?>
<!-- Generator: Adobe Illustrator 18.0.0, SVG Export Plug-In . SVG Version: 6.00 Build 0)  -->
<!DOCTYPE svg PUBLIC "-//W3C//DTD SVG 1.1//EN" "http://www.w3.org/Graphics/SVG/1.1/DTD/svg11.dtd">
<svg version="1.1" id="Layer_1" xmlns:sketch="http://www.bohemiancoding.com/sketch/ns"
	 xmlns="http://www.w3.org/2000/svg" xmlns:xlink="http://www.w3.org/1999/xlink" x="0px" y="0px" viewBox="0 0 34 42"
	 enable-background="new 0 0 34 42" xml:space="preserve">
<title>Slice 4</title>
<desc>Created with Sketch.</desc>
<g id="Download-our-app-_x2B_-Fill-10" transform="translate(-4357.348196, -503.000000)" sketch:type="MSLayerGroup">
	<path id="Fill-10" sketch:type="MSShapeGroup" fill="#FFFFFF" d="M4378.8,529c-1.6,0-2.9-0.6-3.7-1.7l-0.3-0.4l-0.3,0.4
		c-0.9,1.1-2.2,1.7-3.9,1.7c-3.6,0-5.3-2.2-5.3-6.9v-8.4c0-0.3,0.2-0.6,0.6-0.6h3c0.3,0,0.6,0.2,0.6,0.6v8.1c0,3.1,0.5,3.6,2.2,3.6
		c0.7,0,1.2-0.3,1.4-0.5l0.2-0.1l0-0.2c-0.1-0.7-0.2-1.6-0.2-2.6v-8.3c0-0.3,0.2-0.6,0.6-0.6h3c0.3,0,0.6,0.2,0.6,0.6v8.1
		c0,2.6,0.5,3.6,1.8,3.6c2,0,2.1-2.5,2.1-5.8c0-1.6-0.3-4.1-0.9-6c0-0.2,0.3-0.4,0.6-0.4h2.9c0.3,0,0.6,0.2,0.6,0.6
		c0.4,1.7,0.7,4.2,0.7,5.9C4384.8,525.5,4383.8,529,4378.8,529L4378.8,529z M4384.6,505h-19.1c0,0-0.5,5.1-6.7,5.1
		c0,0,0.2,16.8,5.6,22.6c2,2.1,3.9,3.8,5.6,4.9l-3.2,5.3c3.9-0.7,9-2.8,9-2.8c1.6-0.7,5.8-2.8,10-7.4c5.3-5.8,5.6-22.6,5.6-22.6
		C4385.1,510.2,4384.6,505,4384.6,505L4384.6,505z"/>
</g>
</svg>
