<?xml version="1.0" encoding="utf-8"?>
<!-- Generator: Adobe Illustrator 18.0.0, SVG Export Plug-In . SVG Version: 6.00 Build 0)  -->
<!DOCTYPE svg PUBLIC "-//W3C//DTD SVG 1.1//EN" "http://www.w3.org/Graphics/SVG/1.1/DTD/svg11.dtd">
<svg version="1.1" id="Layer_1" xmlns:sketch="http://www.bohemiancoding.com/sketch/ns"
	 xmlns="http://www.w3.org/2000/svg" xmlns:xlink="http://www.w3.org/1999/xlink" x="0px" y="0px" width="31px" height="22px"
	 viewBox="0 0 31 22" enable-background="new 0 0 31 22" xml:space="preserve">
<title>1.4 Profile—About</title>
<desc>Created with Sketch.</desc>
<g id="Profile_x2014_Desktop-_x26_-ipad" sketch:type="MSPage">
	<g id="_x30_93_x5F_graduation-hat" transform="translate(1098.000000, 558.000000)" sketch:type="MSLayerGroup">
		<path id="Shape" sketch:type="MSShapeGroup" fill="#00B4B1" d="M-1067.9-552.3l-14-4.6c-0.2-0.1-0.3-0.1-0.5,0l-14,4.6
			c-0.3,0.1-0.5,0.4-0.5,0.7c0,0.3,0.2,0.6,0.5,0.7l4.1,1.4v4.1c0,0.2,0.1,0.4,0.2,0.5c0.1,0.1,3.4,3.3,9.9,3.3
			c2.4,0,4.6-0.4,6.5-1.2c0.4-0.2,0.6-0.6,0.4-1c-0.2-0.4-0.6-0.6-1-0.4c-1.8,0.7-3.8,1.1-5.9,1.1c-3,0-5.3-0.8-6.6-1.4
			c-1-0.5-1.7-1-2-1.2v-3.2l8.3,2.7c0.1,0,0.2,0,0.2,0c0.1,0,0.2,0,0.2,0l8.3-2.7v1.4c-0.9,0.3-1.6,1.2-1.6,2.2
			c0,0.9,0.6,1.7,1.4,2.1l-1.4,5.4c-0.1,0.2,0,0.5,0.1,0.7c0.1,0.2,0.4,0.3,0.6,0.3h3.1c0.2,0,0.5-0.1,0.6-0.3s0.2-0.4,0.1-0.7
			l-1.4-5.4c0.8-0.4,1.4-1.2,1.4-2.1c0-1-0.7-1.9-1.6-2.2v-1.9l4.1-1.4c0.3-0.1,0.5-0.4,0.5-0.7
			C-1067.4-551.9-1067.6-552.2-1067.9-552.3L-1067.9-552.3z M-1072.8-546.2c0.4,0,0.8,0.3,0.8,0.8c0,0.4-0.3,0.8-0.8,0.8
			c-0.4,0-0.8-0.3-0.8-0.8C-1073.6-545.9-1073.3-546.2-1072.8-546.2L-1072.8-546.2z M-1073.4-538.5l0.6-2.2l0.6,2.2H-1073.4
			L-1073.4-538.5z M-1072.9-550.9l-9.2-1.5c-0.4-0.1-0.8,0.2-0.9,0.6c-0.1,0.4,0.2,0.8,0.6,0.9l6.3,1l-6.1,2l-11.6-3.8l11.6-3.8
			l11.6,3.8L-1072.9-550.9L-1072.9-550.9z"/>
	</g>
</g>
</svg>
