<?xml version="1.0" encoding="utf-8"?>
<!-- Generator: Adobe Illustrator 18.0.0, SVG Export Plug-In . SVG Version: 6.00 Build 0)  -->
<!DOCTYPE svg PUBLIC "-//W3C//DTD SVG 1.1//EN" "http://www.w3.org/Graphics/SVG/1.1/DTD/svg11.dtd">
<svg version="1.1" id="Layer_1" xmlns:sketch="http://www.bohemiancoding.com/sketch/ns"
	 xmlns="http://www.w3.org/2000/svg" xmlns:xlink="http://www.w3.org/1999/xlink" x="0px" y="0px" width="33px" height="27px"
	 viewBox="0 0 33 27" enable-background="new 0 0 33 27" xml:space="preserve">
<title>Fill 1</title>
<desc>Created with Sketch.</desc>
<g id="Profile_x2014_Desktop-_x26_-ipad" sketch:type="MSPage">
	
		<g id="Fill-1-_x2B_-Imported-Layers-_x2B_-Imported-Layers" transform="translate(316.000000, 899.000000)" sketch:type="MSLayerGroup">
		<path id="Fill-1" sketch:type="MSShapeGroup" fill="#C8C8C8" d="M-312.7-898.9h26.4c0.5,0,0.9,0.1,1.3,0.3l-14.5,17.3l-14.5-17.3
			C-313.6-898.8-313.1-898.9-312.7-898.9L-312.7-898.9z M-316-875.4v-20.1c0-0.1,0-0.1,0-0.2l9.7,11.5l-9.6,9.7
			C-315.9-874.8-316-875.1-316-875.4L-316-875.4z M-286.3-872.1h-26.4c-0.3,0-0.6,0-0.9-0.1l9.4-9.6l4.7,5.5l4.7-5.5l9.4,9.6
			C-285.7-872.1-286-872.1-286.3-872.1L-286.3-872.1z M-283-875.4c0,0.3,0,0.6-0.1,0.9l-9.6-9.7l9.7-11.5c0,0.1,0,0.1,0,0.2V-875.4z
			"/>
	</g>
</g>
</svg>
