<?xml version="1.0" encoding="utf-8"?>
<!-- Generator: Adobe Illustrator 18.0.0, SVG Export Plug-In . SVG Version: 6.00 Build 0)  -->
<!DOCTYPE svg PUBLIC "-//W3C//DTD SVG 1.1//EN" "http://www.w3.org/Graphics/SVG/1.1/DTD/svg11.dtd">
<svg version="1.1" id="Layer_1" xmlns:sketch="http://www.bohemiancoding.com/sketch/ns"
	 xmlns="http://www.w3.org/2000/svg" xmlns:xlink="http://www.w3.org/1999/xlink" x="0px" y="0px" width="76px" height="76px"
	 viewBox="0 0 76 76" enable-background="new 0 0 76 76" xml:space="preserve">
<title>269_wondering</title>
<desc>Created with Sketch.</desc>
<g id="_x35_.-error-pages" sketch:type="MSPage">
	<g id="_x32_69_x5F_wondering" transform="translate(680.000000, 395.000000)" sketch:type="MSLayerGroup">
		<path id="Shape" sketch:type="MSShapeGroup" fill="#00B4B1" d="M-642-319c-10.2,0-19.7-4-26.9-11.1S-680-346.9-680-357
			s4-19.7,11.1-26.9S-652.2-395-642-395s19.7,4,26.9,11.1S-604-367.1-604-357s-4,19.7-11.1,26.9S-631.8-319-642-319L-642-319z
			 M-642-391c-18.7,0-34,15.3-34,34s15.3,34,34,34s34-15.3,34-34S-623.3-391-642-391L-642-391z"/>
		<path id="Shape_1_" sketch:type="MSShapeGroup" fill="#00B4B1" d="M-654-367c-3.3,0-6-2.7-6-6s2.7-6,6-6s6,2.7,6,6
			S-650.7-367-654-367L-654-367z M-654-375c-1.1,0-2,0.9-2,2s0.9,2,2,2s2-0.9,2-2S-652.9-375-654-375L-654-375z"/>
		<path id="Shape_2_" sketch:type="MSShapeGroup" fill="#00B4B1" d="M-630-367c-3.3,0-6-2.7-6-6s2.7-6,6-6s6,2.7,6,6
			S-626.7-367-630-367L-630-367z M-630-375c-1.1,0-2,0.9-2,2s0.9,2,2,2s2-0.9,2-2S-628.9-375-630-375L-630-375z"/>
		<path id="Shape_3_" sketch:type="MSShapeGroup" fill="#00B4B1" d="M-630-339c-0.2,0-0.4,0-0.5-0.1l-28-8c-1.1-0.3-1.7-1.4-1.4-2.5
			c0.3-1.1,1.4-1.7,2.5-1.4l28,8c1.1,0.3,1.7,1.4,1.4,2.5C-628.3-339.6-629.1-339-630-339L-630-339z"/>
	</g>
</g>
</svg>
