<?xml version="1.0" encoding="UTF-8" standalone="no"?>
<svg width="76px" height="76px" viewBox="0 0 76 76" version="1.1" xmlns="http://www.w3.org/2000/svg" xmlns:xlink="http://www.w3.org/1999/xlink" xmlns:sketch="http://www.bohemiancoding.com/sketch/ns">
    <!-- Generator: Sketch 3.3 (11970) - http://www.bohemiancoding.com/sketch -->
    <title>269_wondering</title>
    <desc>Created with Sketch.</desc>
    <defs></defs>
    <g id="5.-error-pages" stroke="none" stroke-width="1" fill="none" fill-rule="evenodd" sketch:type="MSPage">
        <g id="5.1-iPad—404-Error" sketch:type="MSArtboardGroup" transform="translate(-346.000000, -395.000000)">
            <rect id="Rectangle-29" stroke="#979797" fill="#F0F0F0" sketch:type="MSShapeGroup" x="-2" y="113" width="770" height="911"></rect>
            <g id="269_wondering" sketch:type="MSLayerGroup" transform="translate(346.000000, 395.000000)" fill="#00B4B1">
                <path d="M38,76 C27.85,76 18.307,72.047 11.13,64.87 C3.953,57.693 0,48.15 0,38 C0,27.85 3.953,18.307 11.13,11.13 C18.307,3.953 27.85,0 38,0 C48.15,0 57.693,3.953 64.87,11.13 C72.047,18.307 76,27.85 76,38 C76,48.15 72.047,57.693 64.87,64.87 C57.693,72.047 48.15,76 38,76 L38,76 Z M38,4 C19.252,4 4,19.252 4,38 C4,56.748 19.252,72 38,72 C56.748,72 72,56.748 72,38 C72,19.252 56.748,4 38,4 L38,4 Z" id="Shape" sketch:type="MSShapeGroup"></path>
                <path d="M26,28 C22.692,28 20,25.308 20,22 C20,18.692 22.692,16 26,16 C29.308,16 32,18.692 32,22 C32,25.308 29.308,28 26,28 L26,28 Z M26,20 C24.897,20 24,20.897 24,22 C24,23.103 24.897,24 26,24 C27.103,24 28,23.103 28,22 C28,20.897 27.103,20 26,20 L26,20 Z" id="Shape" sketch:type="MSShapeGroup"></path>
                <path d="M50,28 C46.691,28 44,25.308 44,22 C44,18.692 46.691,16 50,16 C53.309,16 56,18.692 56,22 C56,25.308 53.309,28 50,28 L50,28 Z M50,20 C48.897,20 48,20.897 48,22 C48,23.103 48.897,24 50,24 C51.103,24 52,23.103 52,22 C52,20.897 51.103,20 50,20 L50,20 Z" id="Shape" sketch:type="MSShapeGroup"></path>
                <path d="M50.001,56 C49.819,56 49.634,55.975 49.451,55.923 L21.451,47.923 C20.389,47.619 19.774,46.513 20.077,45.45 C20.38,44.387 21.487,43.774 22.55,44.076 L50.55,52.076 C51.612,52.38 52.227,53.486 51.924,54.549 C51.673,55.427 50.872,56 50.002,56 L50.001,56 Z" id="Shape" sketch:type="MSShapeGroup"></path>
            </g>
        </g>
    </g>
</svg>