<?xml version="1.0" encoding="utf-8"?>
<!-- Generator: Adobe Illustrator 18.0.0, SVG Export Plug-In . SVG Version: 6.00 Build 0)  -->
<!DOCTYPE svg PUBLIC "-//W3C//DTD SVG 1.1//EN" "http://www.w3.org/Graphics/SVG/1.1/DTD/svg11.dtd">
<svg version="1.1" id="Layer_1" xmlns:sketch="http://www.bohemiancoding.com/sketch/ns"
	 xmlns="http://www.w3.org/2000/svg" xmlns:xlink="http://www.w3.org/1999/xlink" x="0px" y="0px" width="33px" height="25px"
	 viewBox="0 0 33 25" enable-background="new 0 0 33 25" xml:space="preserve">
<title>1.4 Profile—About</title>
<desc>Created with Sketch.</desc>
<g id="noun_64348" transform="translate(444.000000, 558.000000)" sketch:type="MSLayerGroup">
	<path id="Shape" sketch:type="MSShapeGroup" fill="#00B4B1" d="M-415.7-551.4h-6.5v-2.9c0-0.4-0.3-0.7-0.7-0.7h-10.1
		c-0.4,0-0.7,0.3-0.7,0.7v2.9h-6.5c-0.4,0-0.7,0.3-0.7,0.7v15c0,0.4,0.3,0.7,0.7,0.7h24.6c0.4,0,0.7-0.3,0.7-0.7v-15
		C-415-551.1-415.3-551.4-415.7-551.4L-415.7-551.4z M-432.3-553.6h8.7v2.1h-8.7V-553.6L-432.3-553.6z M-436.7-536.4h-2.9V-550h2.9
		V-536.4L-436.7-536.4z M-420.8-536.4h-14.4V-550h14.4V-536.4L-420.8-536.4z M-416.4-536.4h-2.9V-550h2.9V-536.4L-416.4-536.4z"/>
</g>
</svg>
