<?xml version="1.0" encoding="UTF-8" standalone="no"?>
<svg width="71px" height="70px" viewBox="0 0 71 70" version="1.1" xmlns="http://www.w3.org/2000/svg" xmlns:xlink="http://www.w3.org/1999/xlink" xmlns:sketch="http://www.bohemiancoding.com/sketch/ns">
    <!-- Generator: Sketch 3.3 (11970) - http://www.bohemiancoding.com/sketch -->
    <title>3.7 Desktop—Testimonial form end private client</title>
    <desc>Created with Sketch.</desc>
    <defs></defs>
    <g id="Welcome" stroke="none" stroke-width="1" fill="none" fill-rule="evenodd" sketch:type="MSPage">
        <g id="3.7-Desktop—Testimonial-form-end-private-client" sketch:type="MSArtboardGroup" transform="translate(-754.348196, -729.000000)">
            <rect id="Rectangle-19" fill="#F0F0F0" sketch:type="MSShapeGroup" x="1" y="0" width="1800" height="1012"></rect>
            <g id="SHARE-+-Oval-77-+-f_logo-+-TEXT-+-Oval-77-+-f_logo-+-Fill-1-+-EMAIL-+-Oval-79-+-Fill-1" sketch:type="MSLayerGroup" transform="translate(758.000000, 733.000000)">
                <g id="SHARE-+-Oval-77-+-f_logo" transform="translate(0.000000, 0.000000)" sketch:type="MSShapeGroup">
                    <g id="Oval-77-+-f_logo" transform="translate(1.000000, 0.000000)">
                        <ellipse id="Oval-77" fill="#00B4B1" cx="32" cy="32" rx="32" ry="32"></ellipse>
                        <g id="f_logo" transform="translate(25.144302, 18.309502)" fill="#FFFFFF">
                            <path d="M3.55480633,27.3809961 L3.55480633,14.569428 L0.0992806624,14.569428 L0.0992806624,9.95672585 L3.55480633,9.95672585 L3.55480633,6.01684943 C3.55480633,2.92080553 5.5960269,0.0779113798 10.2992896,0.0779113798 C12.2036501,0.0779113798 13.6121152,0.256883527 13.6121152,0.256883527 L13.5009005,4.56441205 C13.5009005,4.56441205 12.0647588,4.55072155 10.497597,4.55072155 C8.80144655,4.55072155 8.52975778,5.31689161 8.52975778,6.58886333 C8.52975778,7.59424373 8.52975778,4.44592701 8.52975778,9.95697477 L13.6357292,9.95697477 L13.4135538,14.5696769 L8.52975778,14.5696769 L8.52975778,27.3809961 L3.55480633,27.3809961 L3.55480633,27.3809961 Z" id="Shape"></path>
                        </g>
                    </g>
                </g>
            </g>
        </g>
    </g>
</svg>