<?xml version="1.0" encoding="utf-8"?>
<!-- Generator: Adobe Illustrator 18.0.0, SVG Export Plug-In . SVG Version: 6.00 Build 0)  -->
<!DOCTYPE svg PUBLIC "-//W3C//DTD SVG 1.1//EN" "http://www.w3.org/Graphics/SVG/1.1/DTD/svg11.dtd">
<svg version="1.1" id="Layer_1" xmlns:sketch="http://www.bohemiancoding.com/sketch/ns"
	 xmlns="http://www.w3.org/2000/svg" xmlns:xlink="http://www.w3.org/1999/xlink" x="0px" y="0px" viewBox="0 0 71 70"
	 enable-background="new 0 0 71 70" xml:space="preserve">
<title>3.7 Desktop—Testimonial form end private client</title>
<desc>Created with Sketch.</desc>
<g id="Welcome" sketch:type="MSPage">
	
		<g id="_x33_.7-Desktop_x2014_Testimonial-form-end-private-client" transform="translate(-754.348196, -729.000000)" sketch:type="MSArtboardGroup">
		<rect id="Rectangle-19" x="1" sketch:type="MSShapeGroup" fill="#F0F0F0" width="1800" height="1012">
		</rect>
		
			<g id="SHARE-_x2B_-Oval-77-_x2B_-f_x5F_logo-_x2B_-TEXT-_x2B_-Oval-77-_x2B_-f_x5F_logo-_x2B_-Fill-1-_x2B_-EMAIL-_x2B_-Oval-79-_x2B_-Fill-1" transform="translate(758.000000, 733.000000)" sketch:type="MSLayerGroup">
			<g id="SHARE-_x2B_-Oval-77-_x2B_-f_x5F_logo" transform="translate(0.000000, 0.000000)" sketch:type="MSShapeGroup">
				<g id="Oval-77-_x2B_-f_x5F_logo" transform="translate(1.000000, 0.000000)">
					<ellipse id="Oval-77" fill="#009C9A" cx="32" cy="32" rx="32" ry="32"/>
					<g id="f_logo" transform="translate(25.144302, 18.309502)">
						<path id="Shape" fill="#FFFFFF" d="M3.6,27.4V14.6H0.1V10h3.5V6c0-3.1,2-5.9,6.7-5.9c1.9,0,3.3,0.2,3.3,0.2l-0.1,4.3
							c0,0-1.4,0-3,0c-1.7,0-2,0.8-2,2c0,1,0-2.1,0,3.4h5.1l-0.2,4.6H8.5v12.8H3.6L3.6,27.4z"/>
					</g>
				</g>
			</g>
		</g>
	</g>
</g>
</svg>
