<?xml version="1.0" encoding="utf-8"?>
<!-- Generator: Adobe Illustrator 18.0.0, SVG Export Plug-In . SVG Version: 6.00 Build 0)  -->
<!DOCTYPE svg PUBLIC "-//W3C//DTD SVG 1.1//EN" "http://www.w3.org/Graphics/SVG/1.1/DTD/svg11.dtd">
<svg version="1.1" id="Layer_1" xmlns:sketch="http://www.bohemiancoding.com/sketch/ns"
	 xmlns="http://www.w3.org/2000/svg" xmlns:xlink="http://www.w3.org/1999/xlink" x="0px" y="0px" width="31px" height="31px"
	 viewBox="0 0 31 31" enable-background="new 0 0 31 31" xml:space="preserve">
<title>Imported Layers</title>
<desc>Created with Sketch.</desc>
<g id="Fill-1-_x2B_-Imported-Layers-_x2B_-Imported-Layers" transform="translate(316.000000, 899.000000)" sketch:type="MSLayerGroup">
	<g id="Imported-Layers" sketch:type="MSShapeGroup">
		<path id="Fill-1" fill="#3C5A98" d="M-285.1-869.8c0,1-0.8,1.8-1.8,1.8h-27.4c-1,0-1.8-0.8-1.8-1.8v-27.5c0-1,0.8-1.8,1.8-1.8
			h27.4c1,0,1.8,0.8,1.8,1.8V-869.8"/>
		<path id="Fill-2" fill="#FFFFFF" d="M-298.3-870.2v-11.4h-3v-4.1h3v-3.5c0-2.8,1.8-5.3,5.9-5.3c1.7,0,2.9,0.2,2.9,0.2l-0.1,3.8
			c0,0-1.2,0-2.6,0c-1.5,0-1.7,0.7-1.7,1.8c0,0.9,0-1.9,0,3h4.4l-0.2,4.1h-4.2v11.4H-298.3"/>
	</g>
</g>
</svg>
