<?xml version="1.0" encoding="utf-8"?>
<!-- Generator: Adobe Illustrator 18.0.0, SVG Export Plug-In . SVG Version: 6.00 Build 0)  -->
<!DOCTYPE svg PUBLIC "-//W3C//DTD SVG 1.1//EN" "http://www.w3.org/Graphics/SVG/1.1/DTD/svg11.dtd">
<svg version="1.1" id="Layer_1" xmlns:sketch="http://www.bohemiancoding.com/sketch/ns"
	 xmlns="http://www.w3.org/2000/svg" xmlns:xlink="http://www.w3.org/1999/xlink" x="0px" y="0px" viewBox="0 0 51 50"
	 enable-background="new 0 0 51 50" xml:space="preserve">
<title>Oval 53 + 123_users2 2</title>
<desc>Created with Sketch.</desc>
<g id="Profile_x2014_Desktop-_x26_-ipad" sketch:type="MSPage">
	
		<g id="_x31_.5-iPad-Portrait_x2014_Connection-Request" transform="translate(-439.000000, -217.000000)" sketch:type="MSArtboardGroup">
		<g id="Group" transform="translate(77.000000, 230.000000)" sketch:type="MSLayerGroup">
			<g id="Oval-53-_x2B_-123_x5F_users2-2" transform="translate(200.500000, 0.000000)" sketch:type="MSShapeGroup">
				<circle id="Oval-53" fill="#00B4B1" cx="187" cy="12" r="25"/>
				<g id="_x31_23_x5F_users2-2" transform="translate(10.000000, 12.000000)">
					<path id="Shape" fill="#FFFFFF" d="M189.4,9.9h-16.3c-1.2,0-2.2-1-2.2-2.3c0-0.1,0-1.8,1.4-3.5c0.8-1,1.8-1.8,3.2-2.3
						c1.6-0.7,3.6-1,5.9-1c2.3,0,4.3,0.3,5.9,1c1.3,0.6,2.4,1.3,3.2,2.3c1.4,1.7,1.4,3.5,1.4,3.5C191.6,8.9,190.6,9.9,189.4,9.9
						L189.4,9.9z M172.4,7.6c0,0.4,0.3,0.8,0.7,0.8h16.3c0.4,0,0.7-0.3,0.7-0.8c0-0.1,0-1.4-1.1-2.6c-1.4-1.8-4.1-2.7-7.8-2.7
						c-3.7,0-6.4,0.9-7.8,2.7C172.4,6.3,172.4,7.6,172.4,7.6L172.4,7.6z"/>
					<path id="Shape_1_" fill="#FFFFFF" d="M181.3-0.8c-3.3,0-5.9-2.7-5.9-6.1s2.7-6.1,5.9-6.1s5.9,2.7,5.9,6.1S184.5-0.8,181.3-0.8
						L181.3-0.8z M181.3-11.5c-2.5,0-4.4,2.1-4.4,4.6s2,4.6,4.4,4.6c2.5,0,4.4-2.1,4.4-4.6S183.7-11.5,181.3-11.5L181.3-11.5z"/>
					<path id="Shape_2_" fill="#FFFFFF" d="M168.7,9.9h-4.4c-1.2,0-2.2-1-2.2-2.3c0-0.1,0-1.4,1-2.7c0.6-0.8,1.3-1.4,2.3-1.8
						c1.1-0.5,2.5-0.8,4.2-0.8c0.3,0,0.5,0,0.8,0c0.4,0,0.7,0.4,0.7,0.8s-0.4,0.7-0.8,0.7c-0.2,0-0.5,0-0.7,0
						c-5.8,0-5.9,3.6-5.9,3.8c0,0.4,0.3,0.8,0.7,0.8h4.4c0.4,0,0.7,0.3,0.7,0.8C169.4,9.6,169.1,9.9,168.7,9.9L168.7,9.9z"/>
					<path id="Shape_3_" fill="#FFFFFF" d="M169.4,0.7c-2.5,0-4.4-2.1-4.4-4.6s2-4.6,4.4-4.6c2.5,0,4.4,2.1,4.4,4.6
						S171.9,0.7,169.4,0.7L169.4,0.7z M169.4-6.9c-1.6,0-3,1.4-3,3.1s1.3,3.1,3,3.1c1.6,0,3-1.4,3-3.1S171-6.9,169.4-6.9L169.4-6.9z
						"/>
				</g>
			</g>
		</g>
	</g>
</g>
</svg>
