<?xml version="1.0" encoding="utf-8"?>
<!-- Generator: Adobe Illustrator 18.0.0, SVG Export Plug-In . SVG Version: 6.00 Build 0)  -->
<!DOCTYPE svg PUBLIC "-//W3C//DTD SVG 1.1//EN" "http://www.w3.org/Graphics/SVG/1.1/DTD/svg11.dtd">
<svg version="1.1" id="Layer_1" xmlns:sketch="http://www.bohemiancoding.com/sketch/ns"
	 xmlns="http://www.w3.org/2000/svg" xmlns:xlink="http://www.w3.org/1999/xlink" x="0px" y="0px" viewBox="0 0 24 22"
	 enable-background="new 0 0 24 22" xml:space="preserve">
<title>1.4 Profile—About</title>
<desc>Created with Sketch.</desc>
<g id="Profile_x2014_Desktop-_x26_-ipad" sketch:type="MSPage">
	<g id="_x31_.4-Profile_x2014_About" transform="translate(-772.000000, -557.000000)" sketch:type="MSArtboardGroup">
		
			<g id="_x30_45_x5F_shield" transform="translate(784.173001, 568.000000) rotate(1.000000) translate(-784.173001, -568.000000) translate(774.173001, 558.000000)" sketch:type="MSLayerGroup">
			<path id="Shape" sketch:type="MSShapeGroup" fill="#00B4B1" stroke="#00B4B1" stroke-width="0.5" d="M10,19.7c-0.1,0-0.1,0-0.2,0
				c-1.9-0.6-4.2-2.6-6-5.1c-1.6-2.3-3.5-6-3.5-11c0-0.3,0.2-0.5,0.5-0.5c2.9,0,7.4-1.9,8.9-2.8c0.2-0.1,0.4-0.1,0.6,0
				c1.5,1,6,2.8,8.9,2.8c0.3,0,0.5,0.2,0.5,0.5c0,5-1.9,8.7-3.5,11c-1.8,2.5-4.1,4.5-6,5.1C10.1,19.7,10,19.7,10,19.7L10,19.7z
				 M1.3,4.1c0.1,4.5,1.9,7.9,3.4,10c1.8,2.5,3.9,4.1,5.3,4.6c1.4-0.5,3.5-2.1,5.3-4.6c1.5-2.1,3.2-5.5,3.4-10C17,4,15.2,3.5,13.8,3
				c-1.5-0.5-2.9-1.2-3.9-1.7C9,1.9,7.6,2.5,6.1,3C4.8,3.5,3,4,1.3,4.1L1.3,4.1z"/>
		</g>
	</g>
</g>
</svg>
