<?xml version="1.0" encoding="UTF-8" standalone="no"?>
<svg width="228px" height="53px" viewBox="0 0 228 53" version="1.1" xmlns="http://www.w3.org/2000/svg" xmlns:xlink="http://www.w3.org/1999/xlink" xmlns:sketch="http://www.bohemiancoding.com/sketch/ns">
    <!-- Generator: Sketch 3.3 (11970) - http://www.bohemiancoding.com/sketch -->
    <title>Fill 1 + wurble-logo-green 3 + Fill 4</title>
    <desc>Created with Sketch.</desc>
    <defs>
        <filter x="-50%" y="-50%" width="200%" height="200%" filterUnits="objectBoundingBox" id="filter-1">
            <feOffset dx="0" dy="2" in="SourceAlpha" result="shadowOffsetOuter1"></feOffset>
            <feGaussianBlur stdDeviation="1" in="shadowOffsetOuter1" result="shadowBlurOuter1"></feGaussianBlur>
            <feColorMatrix values="0 0 0 0 0   0 0 0 0 0   0 0 0 0 0  0 0 0 0.35 0" in="shadowBlurOuter1" type="matrix" result="shadowMatrixOuter1"></feColorMatrix>
            <feMerge>
                <feMergeNode in="shadowMatrixOuter1"></feMergeNode>
                <feMergeNode in="SourceGraphic"></feMergeNode>
            </feMerge>
        </filter>
        <path id="path-2" d="M0.100461046,0.0303491399 L223.822188,0.0303491399 L223.822188,47.9052118 L0.100461046,47.9052118"></path>
        <linearGradient x1="72.7587675%" y1="0%" x2="7.2261939%" y2="71.1314125%" id="linearGradient-4">
            <stop stop-color="#D8D8D8" offset="0%"></stop>
            <stop stop-color="#E1E1E1" offset="53.4800874%"></stop>
            <stop stop-color="#FFFFFF" offset="100%"></stop>
        </linearGradient>
    </defs>
    <g id="Welcome" stroke="none" stroke-width="1" fill="none" fill-rule="evenodd" sketch:type="MSPage">
        <g id="Fill-1-+-wurble-logo-green-3-+-Fill-4" sketch:type="MSLayerGroup" transform="translate(1.988983, 0.850000)">
            <path d="M37.2692304,11.8465693 C37.2692304,11.8465693 37.0013343,30.3331438 30.923441,36.7554807 C26.1515413,41.8120547 19.1694985,45.0801299 19.0355505,45.1289071 C19.0020635,45.1614253 12.8404526,47.3564012 9.324316,48.0067644 L12.9409137,42.1860136 C11.0154103,40.8852871 8.77178024,39.1130473 6.5281502,36.7554807 C0.450256893,30.3331438 0.182360769,11.8465693 0.182360769,11.8465693 C7.33183857,11.8465693 7.85088731,6.20466833 7.85088731,6.20466833 L29.6007039,6.20466833 C29.6007039,6.20466833 30.1364961,11.8465693 37.2692304,11.8465693" id="Fill-1" fill="#FFFFFF" filter="url(#filter-1)" sketch:type="MSShapeGroup"></path>
            <g id="wurble-logo-green-3-+-Fill-3" transform="translate(0.000000, 0.000000)">
                <g id="wurble-logo-green-3">
                    <g id="wurble-logo-green-2" transform="translate(0.182361, 0.003998)">
                        <g id="Group-3">
                            <mask id="mask-3" sketch:name="Clip 2" fill="white">
                                <use xlink:href="#path-2"></use>
                            </mask>
                            <g id="Clip-2"></g>
                        </g>
                        <path d="M84.735544,11.8035494 L90.277645,11.8035494 C91.2789068,11.8035494 92.0474338,12.5514671 92.0474338,13.5221342 C92.8176352,16.5869709 93.3551018,21.2191829 93.3551018,24.5083949 C93.3551018,33.9988202 91.9704137,42.4421607 81.1959664,42.4421607 C77.5793688,42.4421607 74.9623585,40.9479512 73.5006503,39.0797829 C70.654254,42.4421607 66.4985153,42.4421607 65.4219078,42.4421607 C57.1104306,42.4421607 54.6491349,36.6880721 54.6491349,28.9910234 L54.6491349,13.5221342 C54.6491349,12.5514671 55.4176619,11.8035494 56.4172493,11.8035494 L62.1133907,11.8035494 C63.1129781,11.8035494 63.8815051,12.5514671 63.8815051,13.5221342 L63.8815051,28.5422728 C63.8815051,34.073612 64.8057467,34.4459449 67.422757,34.4459449 C68.4223444,34.4459449 69.1925457,34.073612 69.6546666,33.6996531 C69.4236061,32.2038177 69.346586,30.5600247 69.346586,28.8414399 L69.346586,13.5221342 C69.346586,12.5514671 70.115113,11.8035494 71.1163748,11.8035494 L76.8108418,11.8035494 C77.8121035,11.8035494 78.5806305,12.5514671 78.5806305,13.5221342 L78.5806305,28.5422728 C78.5806305,34.073612 79.8112783,34.4459449 81.2729866,34.4459449 C84.1980774,34.4459449 84.5831781,30.7096082 84.5831781,24.4336031 C84.5831781,21.2939747 84.0440371,16.8113462 82.9674296,13.5221342 C82.9674296,12.5514671 83.7359566,11.8035494 84.735544,11.8035494" id="Fill-4" fill="#FFFFFF" sketch:type="MSShapeGroup"></path>
                        <path d="M116.203292,13.5221342 C116.203292,12.5514671 116.971819,11.8035494 117.973081,11.8035494 L123.667548,11.8035494 C124.667136,11.8035494 125.437337,12.5514671 125.437337,13.5221342 L125.437337,37.5855734 C125.437337,38.4066569 124.89987,39.0797829 124.206689,39.4537417 C119.97393,41.6194513 115.818192,42.4421607 112.355634,42.4421607 C102.043308,42.4421607 97.1960624,38.5562405 97.1960624,28.6934822 L97.1960624,13.5221342 C97.1960624,12.5514671 97.9662638,11.8035494 98.9658512,11.8035494 L104.660318,11.8035494 C105.66158,11.8035494 106.430107,12.5514671 106.430107,13.5221342 L106.430107,28.6934822 C106.430107,34.073612 107.739449,34.4459449 112.124574,34.4459449 C112.817755,34.4459449 114.972645,34.2215696 116.203292,32.8021519 L116.203292,13.5221342" id="Fill-5" fill="#FFFFFF" sketch:type="MSShapeGroup"></path>
                        <path d="M150.671477,13.6733436 C151.287639,14.1952601 151.672739,14.868386 151.672739,15.4650943 C151.672739,15.6894696 151.595719,15.9138449 151.518699,16.1382202 L149.979971,19.7997652 C149.67189,20.4728911 148.980383,20.9216417 148.285528,20.9216417 C148.056142,20.9216417 147.825081,20.84685 147.594021,20.7704323 C145.901252,19.8745569 143.977423,19.4258063 142.669755,19.4258063 C141.439107,19.4258063 138.822097,19.8745569 138.514016,21.4435582 L138.514016,40.3496171 C138.514016,41.3219101 137.745489,42.0682019 136.744228,42.0682019 L131.049761,42.0682019 C130.048499,42.0682019 129.279972,41.3219101 129.279972,40.3496171 L129.279972,16.213012 C129.279972,15.3903025 129.894459,14.868386 130.51062,14.3448436 C133.742117,11.8035494 138.666382,11.3564246 142.36,11.3564246 C145.132725,11.3564246 148.362548,11.8035494 150.671477,13.6733436" id="Fill-6" fill="#FFFFFF" sketch:type="MSShapeGroup"></path>
                        <path d="M166.899285,34.4426931 C166.212801,34.4426931 163.835223,34.3776568 162.830613,33.6947754 L162.830613,20.4761429 C163.902197,19.6469298 165.911418,19.4193027 166.597902,19.4193027 C170.130782,19.4193027 172.592078,21.0777289 172.592078,26.3781892 C172.592078,31.7599448 171.286084,34.4426931 166.899285,34.4426931 L166.899285,34.4426931 Z M168.523405,11.7612757 C168.389457,11.7612757 165.040756,11.7775348 163.031535,12.8343751 L162.412025,13.1595567 L162.412025,1.33920512 C162.412025,0.591287419 161.826002,0.0384786802 161.055801,0.0384786802 L155.363008,0.0384786802 C154.592807,0.0384786802 154.006784,0.591287419 154.006784,1.33920512 L154.006784,38.9301993 C154.006784,39.6130807 154.391885,40.1984076 154.961164,40.4097757 C158.025226,41.4340977 162.412025,42.0356837 166.68162,42.0356837 C176.392854,42.0356837 181.951699,36.3287464 181.951699,26.3781892 C181.951699,17.5007312 176.677494,11.7612757 168.523405,11.7612757 L168.523405,11.7612757 Z" id="Fill-7" fill="#FFFFFF" sketch:type="MSShapeGroup"></path>
                        <path d="M189.95677,42.0356837 C185.228403,42.0356837 184.682565,38.1741521 184.682565,35.2686544 L184.682565,1.34245694 C184.682565,0.594539235 185.263564,0.0303491399 186.033766,0.0303491399 L191.728233,0.0303491399 C192.498434,0.0303491399 193.079434,0.594539235 193.079434,1.34245694 L193.079434,32.9517354 C193.079434,34.886566 194.068975,35.7775636 194.660021,36.1352634 C195.107073,36.3840273 195.386689,36.8620443 195.386689,37.3611981 L195.386689,39.9756582 C195.386689,40.5788701 195.135537,41.0601389 193.904889,41.4584864 C192.337696,41.9657697 191.080259,42.0356837 189.95677,42.0356837" id="Fill-8" fill="#FFFFFF" sketch:type="MSShapeGroup"></path>
                        <path d="M211.247814,19.4193027 C213.240292,19.4193027 215.015103,19.8745569 215.015103,22.0370146 C215.015103,23.6791818 213.474701,24.3620632 210.544587,24.3620632 C209.322311,24.3620632 207.078681,24.0531406 205.940122,23.0938549 C206.542888,20.3948475 208.552109,19.4193027 211.247814,19.4193027 L211.247814,19.4193027 Z M221.930172,33.9061434 C221.712506,33.2557802 220.942305,33.207003 220.707896,33.207003 C220.44,33.207003 220.121873,33.2720393 219.904208,33.3858529 C216.95735,34.8491701 213.106343,34.8491701 211.247814,34.8491701 C207.36332,34.8491701 205.588508,32.5078625 205.588508,30.3291457 L205.588508,29.7925961 L206.124301,29.9389278 C208.401418,30.589291 210.578074,30.8982135 212.788217,30.8982135 C219.803747,30.8982135 223.822188,27.2399204 223.822188,20.8501018 C223.822188,15.3220144 218.882854,11.7612757 211.247814,11.7612757 C199.443641,11.7612757 196.965602,19.8257797 196.965602,26.6058163 C196.965602,36.849037 201.770989,42.0356837 211.247814,42.0356837 C214.395594,42.0356837 219.15075,42.0356837 222.633399,39.1090492 C223.252909,38.7188313 223.671497,38.0847271 223.671497,37.5806956 C223.671497,37.4831412 223.654753,37.4018458 223.571036,37.1579596 L221.930172,33.9061434 L221.930172,33.9061434 Z" id="Fill-9" fill="#FFFFFF" sketch:type="MSShapeGroup"></path>
                    </g>
                </g>
                <path d="M6.69698574,37.1197935 C6.57995045,36.999939 6.46286994,36.8785068 6.34578943,36.7554807 C0.267896124,30.3331438 0,11.8465693 0,11.8465693 C7.14947781,11.8465693 7.66852655,6.20466833 7.66852655,6.20466833 L29.4183431,6.20466833 C29.4183431,6.20466833 29.6874576,9.03844802 32.3832618,10.6893352 L6.69698574,37.1197935 Z" id="Fill-3" fill-opacity="0.6" fill="url(#linearGradient-4)" sketch:type="MSShapeGroup"></path>
            </g>
        </g>
    </g>
</svg>