<?xml version="1.0" encoding="utf-8"?>
<!-- Generator: Adobe Illustrator 18.0.0, SVG Export Plug-In . SVG Version: 6.00 Build 0)  -->
<!DOCTYPE svg PUBLIC "-//W3C//DTD SVG 1.1//EN" "http://www.w3.org/Graphics/SVG/1.1/DTD/svg11.dtd">
<svg version="1.1" id="Layer_1" xmlns:sketch="http://www.bohemiancoding.com/sketch/ns"
	 xmlns="http://www.w3.org/2000/svg" xmlns:xlink="http://www.w3.org/1999/xlink" x="0px" y="0px" viewBox="0 0 71 70"
	 enable-background="new 0 0 71 70" xml:space="preserve">
<title>3.7 Desktop—Testimonial form end private client</title>
<desc>Created with Sketch.</desc>
<g id="Welcome" sketch:type="MSPage">
	
		<g id="_x33_.7-Desktop_x2014_Testimonial-form-end-private-client" transform="translate(-972.348196, -731.000000)" sketch:type="MSArtboardGroup">
		<rect id="Rectangle-19" x="1" sketch:type="MSShapeGroup" fill="#F0F0F0" width="1800" height="1012">
		</rect>
		
			<g id="SHARE-_x2B_-Oval-77-_x2B_-f_x5F_logo-_x2B_-TEXT-_x2B_-Oval-77-_x2B_-f_x5F_logo-_x2B_-Fill-1-_x2B_-EMAIL-_x2B_-Oval-79-_x2B_-Fill-1" transform="translate(758.000000, 733.000000)" sketch:type="MSLayerGroup">
			<g id="EMAIL-_x2B_-Oval-79-_x2B_-Fill-1" transform="translate(217.000000, 0.000000)" sketch:type="MSShapeGroup">
				<g id="Oval-79-_x2B_-Fill-1" transform="translate(0.000000, 0.000000)">
					<circle id="Oval-79" fill="#FFFFFF" cx="33" cy="33" r="28"/>
					<path id="Fill-1" fill="#009C9A" d="M33,0C15.1,0,0.5,14.5,0.5,32.4c0,17.9,14.5,32.4,32.5,32.4c17.9,0,32.5-14.5,32.5-32.4
						C65.5,14.5,50.9,0,33,0L33,0z M21.4,20.8h23.1c0.4,0,0.8,0.1,1.2,0.3L33,35.9L20.3,21.1C20.6,20.9,21,20.8,21.4,20.8L21.4,20.8
						z M18.5,41V23.7c0-0.1,0-0.1,0-0.2l8.5,9.9l-8.4,8.4C18.6,41.5,18.5,41.3,18.5,41L18.5,41z M44.6,43.9H21.4
						c-0.3,0-0.5,0-0.7-0.1l8.2-8.2l4.1,4.8l4.1-4.8l8.2,8.2C45.1,43.9,44.8,43.9,44.6,43.9L44.6,43.9z M47.5,41
						c0,0.3,0,0.5-0.1,0.7L39,33.4l8.5-9.9c0,0.1,0,0.1,0,0.2V41z"/>
				</g>
			</g>
		</g>
	</g>
</g>
</svg>
