<?xml version="1.0" encoding="utf-8"?>
<!-- Generator: Adobe Illustrator 18.0.0, SVG Export Plug-In . SVG Version: 6.00 Build 0)  -->
<!DOCTYPE svg PUBLIC "-//W3C//DTD SVG 1.1//EN" "http://www.w3.org/Graphics/SVG/1.1/DTD/svg11.dtd">
<svg version="1.1" id="Layer_1" xmlns:sketch="http://www.bohemiancoding.com/sketch/ns"
	 xmlns="http://www.w3.org/2000/svg" xmlns:xlink="http://www.w3.org/1999/xlink" x="0px" y="0px" viewBox="0 0 78 88"
	 enable-background="new 0 0 78 88" xml:space="preserve">
<g id="Imported-Layers-5" transform="translate(1046.000000, 483.000000)" sketch:type="MSLayerGroup">
	<path id="Fill-1" sketch:type="MSShapeGroup" fill="#85C05A" d="M-970.6-482.1c0,0,0,34.4,0,45.8c0,11.4-5.4,16.4-13.4,23.5
		c-7.4,6.6-20.5,14-22.3,15c0,0,0,0-0.1,0v-0.2l0,0c0,0-0.1,0-0.1-0.1c-1.7-1-14.8-8.4-22.3-15c-8-7.1-13.4-12.1-13.4-23.5v-45.8
		c0,0,9.1,6.9,20.7,6.9c10,0,14.1-4.1,14.9-5.2c0.1-0.1,0.1-0.1,0.1-0.1c0,0,0,0,0,0.1v0.2l0.1,0.1c0.9,1.1,5,5.2,14.9,5.2
		C-979.7-475.2-970.6-482.1-970.6-482.1"/>
	<path id="Fill-2" sketch:type="MSShapeGroup" fill="#DBEDCE" d="M-1007.7-439.9l-9.4-3.3c-0.9,2.4-2.2,5.7-3.3,8.3
		c-3.1,7.4-5.6,10.9-5.6,10.9l2.5,0.9c0.7-1.1,2.4-4,4.5-9c0,0-2.3,6-3.3,9.4l7.7,2.7v0l4.5,1.6c2-5,4.9-14.3,4.9-14.3
		c-2.1,7.9-2.8,12.9-3,14.9l5.2,1.8c0,0,0.2-4.3,2.4-12c0.8-2.8,1.8-6.1,2.5-8.6L-1007.7-439.9L-1007.7-439.9"/>
	<path id="Fill-3" sketch:type="MSShapeGroup" fill="#DBEDCE" d="M-1000-456.5l4.2-12.1l-1.8-0.6c-0.1,0-1.6-0.6-1.6-0.6l-4.2,12.1
		c0.5,0,1.1,0.2,1.7,0.4C-1001.1-457.1-1000.5-456.8-1000-456.5"/>
	<path id="Fill-4" sketch:type="MSShapeGroup" fill="#DBEDCE" d="M-1000.5-451.3l0.9-2.6c0.3-0.8-1-1.7-2.5-2.2v0c0,0,0,0,0,0
		c0,0,0,0,0,0c-1.4-0.5-2.9-0.5-3.2,0.2l-0.9,2.6c-4.2-0.1-8.2,2.5-9.6,6.7c0,0-0.2,0.6-0.6,1.6l9.4,3.2l9.5,3.3
		c0.3-1,0.5-1.6,0.5-1.6C-995.6-444.2-997.1-448.7-1000.5-451.3"/>
</g>
</svg>
