<?xml version="1.0" encoding="utf-8"?>
<!-- Generator: Adobe Illustrator 18.0.0, SVG Export Plug-In . SVG Version: 6.00 Build 0)  -->
<!DOCTYPE svg PUBLIC "-//W3C//DTD SVG 1.1//EN" "http://www.w3.org/Graphics/SVG/1.1/DTD/svg11.dtd">
<svg version="1.1" id="Layer_1" xmlns:sketch="http://www.bohemiancoding.com/sketch/ns"
	 xmlns="http://www.w3.org/2000/svg" xmlns:xlink="http://www.w3.org/1999/xlink" x="0px" y="0px" width="25px" height="24px"
	 viewBox="0 0 25 24" enable-background="new 0 0 25 24" xml:space="preserve">
<title>down arrow</title>
<desc>Created with Sketch.</desc>
<g id="Profile_x2014_Desktop-_x26_-ipad" sketch:type="MSPage">
	
		<g id="down-arrow" transform="translate(698.500000, 512.500000) rotate(-90.000000) translate(-698.500000, -512.500000) translate(686.000000, 500.000000)" sketch:type="MSLayerGroup">
		<path id="Shape" sketch:type="MSShapeGroup" fill="#FFFFFF" d="M504.7-664.6c-2.2-2.3-3.5-5.4-3.5-8.7c0-3.3,1.2-6.4,3.5-8.7
			c2.2-2.3,5.2-3.6,8.4-3.6s6.2,1.3,8.4,3.6c2.2,2.3,3.5,5.4,3.5,8.7c0,3.3-1.2,6.4-3.5,8.7c-2.2,2.3-5.2,3.6-8.4,3.6
			S507-662.3,504.7-664.6L504.7-664.6z M523.8-673.3c0-6.1-4.8-11.1-10.6-11.1s-10.6,5-10.6,11.1c0,6.1,4.8,11,10.6,11
			S523.8-667.3,523.8-673.3L523.8-673.3z"/>
		<path id="Shape_1_" sketch:type="MSShapeGroup" fill="#FFFFFF" d="M512.7-665.7l-5-5.2c-0.2-0.3-0.2-0.7,0-0.9
			c0.2-0.3,0.6-0.3,0.9,0l3.9,4.1v-13.4c0-0.4,0.3-0.6,0.6-0.6s0.6,0.3,0.6,0.6v13.4l3.9-4.1c0.2-0.3,0.6-0.3,0.9,0
			c0.1,0.1,0.2,0.3,0.2,0.5c0,0.2-0.1,0.3-0.2,0.5l-5,5.2C513.3-665.5,512.9-665.5,512.7-665.7L512.7-665.7z"/>
	</g>
</g>
</svg>
