<?xml version="1.0" encoding="utf-8"?>
<!-- Generator: Adobe Illustrator 18.0.0, SVG Export Plug-In . SVG Version: 6.00 Build 0)  -->
<!DOCTYPE svg PUBLIC "-//W3C//DTD SVG 1.1//EN" "http://www.w3.org/Graphics/SVG/1.1/DTD/svg11.dtd">
<svg version="1.1" id="Layer_1" xmlns:sketch="http://www.bohemiancoding.com/sketch/ns"
	 xmlns="http://www.w3.org/2000/svg" xmlns:xlink="http://www.w3.org/1999/xlink" x="0px" y="0px" viewBox="0 0 61 57"
	 enable-background="new 0 0 61 57" xml:space="preserve">
<title>112_picture + Rectangle 78 + 3</title>
<desc>Created with Sketch.</desc>
<g id="Welcome" sketch:type="MSPage">
	<g id="_x33_.2-Desktop_x2014_Testimonial-form" transform="translate(-1101.000000, -56.000000)" sketch:type="MSArtboardGroup">
		
			<g id="_x31_12_x5F_picture-_x2B_-Rectangle-78-_x2B_-3" transform="translate(1104.000000, 56.000000)" sketch:type="MSLayerGroup">
			<g id="_x31_12_x5F_picture" transform="translate(0.000000, 0.444444)" sketch:type="MSShapeGroup">
				<path id="Shape" fill="#FFFFFF" d="M39.8,12.6c2.3,0,4.1,1.8,4.1,4c0,2.2-1.8,4-4.1,4c-2.3,0-4.1-1.8-4.1-4
					C35.7,14.4,37.6,12.6,39.8,12.6L39.8,12.6z M39.8,10C36,10,33,13,33,16.6s3.1,6.7,6.9,6.7c3.8,0,6.9-3,6.9-6.7S43.6,10,39.8,10
					L39.8,10L39.8,10z"/>
				<path id="Shape_1_" fill="#FFFFFF" d="M48.1,43.2c-0.4,0-0.7-0.1-1-0.4L22.6,19.1c-1.9-1.8-4.9-1.8-6.8,0l-8,7.7
					c-0.5,0.5-1.4,0.5-1.9,0s-0.5-1.4,0-1.9l8-7.7c1.4-1.4,3.3-2.1,5.3-2.1s3.9,0.8,5.3,2.1L49.1,41c0.5,0.5,0.5,1.4,0,1.9
					C48.8,43.1,48.4,43.2,48.1,43.2L48.1,43.2z"/>
				<path id="Shape_2_" fill="#FFFFFF" d="M50.8,52.6H4.1c-2.3,0-4.1-1.8-4.1-4V6c0-2.2,1.8-4,4.1-4h46.7C53.1,2,55,3.8,55,6v42.6
					C55,50.8,53.1,52.6,50.8,52.6L50.8,52.6z M4.1,4.7C3.4,4.7,2.7,5.3,2.7,6v42.6c0,0.7,0.6,1.3,1.4,1.3h46.7
					c0.8,0,1.4-0.6,1.4-1.3V6c0-0.7-0.6-1.3-1.4-1.3H4.1L4.1,4.7z"/>
			</g>
		</g>
	</g>
</g>
</svg>
