<?xml version="1.0" encoding="utf-8"?>
<!-- Generator: Adobe Illustrator 18.0.0, SVG Export Plug-In . SVG Version: 6.00 Build 0)  -->
<!DOCTYPE svg PUBLIC "-//W3C//DTD SVG 1.1//EN" "http://www.w3.org/Graphics/SVG/1.1/DTD/svg11.dtd">
<svg version="1.1" id="Layer_1" xmlns:sketch="http://www.bohemiancoding.com/sketch/ns"
	 xmlns="http://www.w3.org/2000/svg" xmlns:xlink="http://www.w3.org/1999/xlink" x="0px" y="0px" width="32px" height="31px"
	 viewBox="0 0 32 31" enable-background="new 0 0 32 31" xml:space="preserve">
<title>Imported Layers</title>
<desc>Created with Sketch.</desc>
<g id="Profile_x2014_Desktop-_x26_-ipad" sketch:type="MSPage">
	
		<g id="Fill-1-_x2B_-Imported-Layers-_x2B_-Imported-Layers" transform="translate(316.000000, 899.000000)" sketch:type="MSLayerGroup">
		<g id="Imported-Layers" transform="translate(51.515152, 0.000000)" sketch:type="MSShapeGroup">
			<path id="Fill-1" fill="#FFFFFF" d="M-336.2-883.5c0,8.5-6.9,15.5-15.4,15.5c-8.5,0-15.4-6.9-15.4-15.5c0-8.5,6.9-15.5,15.4-15.5
				C-343.1-898.9-336.2-892-336.2-883.5"/>
			<path id="Fill-2" fill="#BD071C" d="M-351.6-897.2c-7.5,0-13.7,6.2-13.7,13.7c0,5.8,3.6,10.8,8.7,12.8c-0.1-1.1-0.2-2.8,0-3.9
				c0.2-1.1,1.6-6.8,1.6-6.8s-0.4-0.8-0.4-2c0-1.9,1.1-3.3,2.5-3.3c1.2,0,1.7,0.9,1.7,1.9c0,1.2-0.7,2.9-1.1,4.6
				c-0.3,1.4,0.7,2.5,2,2.5c2.4,0,4.3-2.6,4.3-6.3c0-3.3-2.3-5.6-5.7-5.6c-3.9,0-6.2,2.9-6.2,6c0,1.2,0.5,2.4,1,3.1
				c0.1,0.1,0.1,0.3,0.1,0.4c-0.1,0.4-0.3,1.4-0.4,1.6c-0.1,0.3-0.2,0.3-0.5,0.2c-1.7-0.8-2.8-3.3-2.8-5.3c0-4.3,3.1-8.3,9-8.3
				c4.7,0,8.4,3.4,8.4,7.9c0,4.7-3,8.6-7.1,8.6c-1.4,0-2.7-0.7-3.1-1.6c0,0-0.7,2.6-0.9,3.3c-0.3,1.2-1.1,2.7-1.7,3.6
				c1.3,0.4,2.6,0.6,4,0.6c7.5,0,13.7-6.2,13.7-13.7C-337.9-891.1-344-897.2-351.6-897.2"/>
		</g>
	</g>
</g>
</svg>
