<?xml version="1.0" encoding="utf-8"?>
<!-- Generator: Adobe Illustrator 18.0.0, SVG Export Plug-In . SVG Version: 6.00 Build 0)  -->
<!DOCTYPE svg PUBLIC "-//W3C//DTD SVG 1.1//EN" "http://www.w3.org/Graphics/SVG/1.1/DTD/svg11.dtd">
<svg version="1.1" id="Layer_1" xmlns:sketch="http://www.bohemiancoding.com/sketch/ns"
	 xmlns="http://www.w3.org/2000/svg" xmlns:xlink="http://www.w3.org/1999/xlink" x="0px" y="0px" width="25px" height="24px"
	 viewBox="0 0 25 24" enable-background="new 0 0 25 24" xml:space="preserve">
<title>up arrow 2</title>
<desc>Created with Sketch.</desc>
<g id="Profile_x2014_Desktop-_x26_-ipad" sketch:type="MSPage">
	
		<g id="up-arrow-2" transform="translate(68.500000, 512.500000) rotate(-90.000000) translate(-68.500000, -512.500000) translate(56.000000, 500.000000)" sketch:type="MSLayerGroup">
		<path id="Shape" sketch:type="MSShapeGroup" fill="#FFFFFF" d="M521.3-51.6c2.2,2.2,3.5,5.2,3.5,8.4s-1.2,6.2-3.5,8.4
			c-2.2,2.2-5.2,3.5-8.4,3.5s-6.2-1.2-8.4-3.5c-2.2-2.2-3.5-5.2-3.5-8.4s1.2-6.2,3.5-8.4c2.2-2.2,5.2-3.5,8.4-3.5
			S519-53.8,521.3-51.6L521.3-51.6z M502.3-43.2c0,5.9,4.8,10.6,10.6,10.6s10.6-4.8,10.6-10.6s-4.8-10.6-10.6-10.6
			S502.3-49,502.3-43.2L502.3-43.2z"/>
		<path id="Shape_1_" sketch:type="MSShapeGroup" fill="#FFFFFF" d="M513.3-50.5l5,5c0.2,0.2,0.2,0.6,0,0.9c-0.2,0.2-0.6,0.2-0.9,0
			l-3.9-3.9v12.9c0,0.3-0.3,0.6-0.6,0.6s-0.6-0.3-0.6-0.6v-12.9l-3.9,3.9c-0.2,0.2-0.6,0.2-0.9,0c-0.1-0.1-0.2-0.3-0.2-0.4
			s0.1-0.3,0.2-0.4l5-5C512.7-50.7,513.1-50.7,513.3-50.5L513.3-50.5z"/>
	</g>
</g>
</svg>
