<?xml version="1.0" encoding="utf-8"?>
<!-- Generator: Adobe Illustrator 18.0.0, SVG Export Plug-In . SVG Version: 6.00 Build 0)  -->
<!DOCTYPE svg PUBLIC "-//W3C//DTD SVG 1.1//EN" "http://www.w3.org/Graphics/SVG/1.1/DTD/svg11.dtd">
<svg version="1.1" id="Layer_1" xmlns:sketch="http://www.bohemiancoding.com/sketch/ns"
	 xmlns="http://www.w3.org/2000/svg" xmlns:xlink="http://www.w3.org/1999/xlink" x="0px" y="0px" viewBox="0 0 96 89"
	 enable-background="new 0 0 96 89" xml:space="preserve">
<g id="Imported-Layers-2" transform="translate(676.681567, 646.000000)" sketch:type="MSLayerGroup">
	<path id="Fill-1" sketch:type="MSShapeGroup" fill="#FFCE4E" d="M-593.5-631c0,0-13.8-1.6-15.6-14.3h-48.2
		c-1.8,12.7-15.6,14.3-15.6,14.3s-0.4,25.6,5,42.6c4.9,15.6,30.2,27.7,34.5,31.3c0.1,0.1,0.1,0.1,0.2,0.2v0.1c0,0,0,0,0,0
		c0,0,0.1,0.1,0.1,0.1l0,0v-0.2c0,0,0.1-0.1,0.1-0.1c4.3-3.6,29.6-15.7,34.5-31.3C-593.1-605.4-593.5-631-593.5-631"/>
	<path id="Fill-2" sketch:type="MSShapeGroup" fill="#FFF1CA" d="M-633.1-627.1L-633.1-627.1h-0.2c-13,0.1-23.5,10.4-23.5,23
		s10.5,23,23.5,23.1h0.1h0.1c13-0.1,23.4-10.4,23.4-23.1C-609.7-616.6-620.1-626.9-633.1-627.1L-633.1-627.1z M-630.8-592.3v3h-2.3
		v0h-1.8v-3c-3.3-0.8-5.5-3.4-6.1-6.3l3.6-2.2c0.6,2.3,2.1,4.4,4.4,4.6v0c0.1,0,0.2,0,0.3,0c1.8,0,3.1-0.9,3.1-3
		c0-1.5-1.5-2.3-3.4-3.1c0,0,0,0-0.1,0v0c-2.9-1.3-6.5-2.8-6.5-7.3c0-2.9,1.9-5.3,4.7-6.1v-3h2.7v0h1.4v3c2.1,0.6,3.6,1.9,4.5,3.9
		l-3.6,2.3c-0.9-1.6-1.8-2.4-3.1-2.4c-1.3,0.1-2.5,0.9-2.5,2.1c0,1.3,1,2.1,2.3,2.8l0,0c3,1.7,7.8,2.9,7.8,7.6
		C-625.2-595.5-627.4-593-630.8-592.3L-630.8-592.3z"/>
</g>
</svg>
