<?xml version="1.0" encoding="utf-8"?>
<!-- Generator: Adobe Illustrator 18.0.0, SVG Export Plug-In . SVG Version: 6.00 Build 0)  -->
<!DOCTYPE svg PUBLIC "-//W3C//DTD SVG 1.1//EN" "http://www.w3.org/Graphics/SVG/1.1/DTD/svg11.dtd">
<svg version="1.1" id="Layer_1" xmlns:sketch="http://www.bohemiancoding.com/sketch/ns"
	 xmlns="http://www.w3.org/2000/svg" xmlns:xlink="http://www.w3.org/1999/xlink" x="0px" y="0px" viewBox="0 0 77 77"
	 enable-background="new 0 0 77 77" xml:space="preserve">
<title>270_confused</title>
<desc>Created with Sketch.</desc>
<g id="_x35_.-error-pages" sketch:type="MSPage">
	<g id="_x32_70_x5F_confused" transform="translate(678.750000, 389.040000)" sketch:type="MSLayerGroup">
		<path id="Shape" sketch:type="MSShapeGroup" fill="#00B4B1" d="M-640-313c-10.2,0-19.7-4-26.9-11.1S-678-340.9-678-351
			s4-19.7,11.1-26.9S-650.2-389-640-389s19.7,4,26.9,11.1S-602-361.1-602-351s-4,19.7-11.1,26.9S-629.8-313-640-313L-640-313z
			 M-640-385c-18.7,0-34,15.3-34,34s15.3,34,34,34s34-15.3,34-34S-621.3-385-640-385L-640-385z"/>
		<path id="Shape_1_" sketch:type="MSShapeGroup" fill="#00B4B1" d="M-652-361c-3.3,0-6-2.7-6-6s2.7-6,6-6s6,2.7,6,6
			S-648.7-361-652-361L-652-361z M-652-369c-1.1,0-2,0.9-2,2s0.9,2,2,2s2-0.9,2-2S-650.9-369-652-369L-652-369z"/>
		<path id="Shape_2_" sketch:type="MSShapeGroup" fill="#00B4B1" d="M-628-361c-3.3,0-6-2.7-6-6s2.7-6,6-6s6,2.7,6,6
			S-624.7-361-628-361L-628-361z M-628-369c-1.1,0-2,0.9-2,2s0.9,2,2,2s2-0.9,2-2S-626.9-369-628-369L-628-369z"/>
		<path id="Shape_3_" sketch:type="MSShapeGroup" fill="#00B4B1" d="M-656-333c-1.1,0-2-0.9-2-2c0-0.3,0-2.5,1.2-4.9
			c1.6-3.3,4.8-5.1,8.8-5.1c4.8,0,7.4,2.5,9.4,4.6c1.9,1.9,3.4,3.4,6.6,3.4c2.5,0,4.2-0.9,5.2-2.8c0.8-1.6,0.8-3.2,0.8-3.2
			c0-1.1,0.9-2,2-2s2,0.9,2,2c0,0.3,0,2.5-1.2,4.9c-1.6,3.3-4.8,5.1-8.8,5.1c-4.8,0-7.4-2.5-9.4-4.6c-1.9-1.9-3.4-3.4-6.6-3.4
			c-2.5,0-4.2,0.9-5.2,2.8c-0.8,1.6-0.8,3.2-0.8,3.2C-654-333.9-654.9-333-656-333L-656-333z"/>
	</g>
</g>
</svg>
