<?xml version="1.0" encoding="UTF-8" standalone="no"?>
<svg width="62px" height="63px" viewBox="0 0 62 63" version="1.1" xmlns="http://www.w3.org/2000/svg" xmlns:xlink="http://www.w3.org/1999/xlink" xmlns:sketch="http://www.bohemiancoding.com/sketch/ns">
    <!-- Generator: Sketch 3.3 (11970) - http://www.bohemiancoding.com/sketch -->
    <title>3.7 Desktop—Testimonial form end private client</title>
    <desc>Created with Sketch.</desc>
    <defs></defs>
    <g id="Welcome" stroke="none" stroke-width="1" fill="none" fill-rule="evenodd" sketch:type="MSPage">
        <g id="3.7-Desktop—Testimonial-form-end-private-client" sketch:type="MSArtboardGroup" transform="translate(-868.348196, -475.000000)">
            <rect id="Rectangle-19" fill="#F0F0F0" sketch:type="MSShapeGroup" x="1" y="0" width="1800" height="1012"></rect>
            <text id="Thanks-Claudia!" sketch:type="MSTextLayer" font-family="GT Walsheim" font-size="40" font-weight="260" sketch:alignment="middle" line-spacing="46" fill="#5C5C5C">
                <tspan x="750.78" y="574">Thanks Claudia!</tspan>
                <tspan x="1044.62" y="574" font-weight="normal"></tspan>
                <tspan x="664.74" y="620" font-weight="normal">Know other good tradies?</tspan>
                <tspan x="668.48" y="666" font-weight="normal">Share our app with them.</tspan>
            </text>
            <g id="261_happy-grin" sketch:type="MSLayerGroup" transform="translate(872.000000, 478.000000)" fill="#00B4B1">
                <path d="M28,56 C20.5210526,56 13.4893684,53.0872632 8.20105263,47.7989474 C2.91273684,42.5106316 0,35.4789474 0,28 C0,20.5210526 2.91273684,13.4893684 8.20105263,8.20105263 C13.4893684,2.91273684 20.5210526,0 28,0 C35.4789474,0 42.5106316,2.91273684 47.7989474,8.20105263 C53.0872632,13.4893684 56,20.5210526 56,28 C56,35.4789474 53.0872632,42.5106316 47.7989474,47.7989474 C42.5106316,53.0872632 35.4789474,56 28,56 L28,56 Z M28,2.94736842 C14.1856842,2.94736842 2.94736842,14.1856842 2.94736842,28 C2.94736842,41.8143158 14.1856842,53.0526316 28,53.0526316 C41.8143158,53.0526316 53.0526316,41.8143158 53.0526316,28 C53.0526316,14.1856842 41.8143158,2.94736842 28,2.94736842 L28,2.94736842 Z" id="Shape" sketch:type="MSShapeGroup"></path>
                <path d="M45.6842105,26.5263158 L10.3157895,26.5263158 C9.50157895,26.5263158 8.84210526,27.1857895 8.84210526,28 C8.84210526,38.5633684 17.4366316,47.1578947 28,47.1578947 C38.5633684,47.1578947 47.1578947,38.5633684 47.1578947,28 C47.1578947,27.1857895 46.4984211,26.5263158 45.6842105,26.5263158 L45.6842105,26.5263158 Z M26.5263158,44.1434737 C24.4204211,43.9526316 22.4294737,43.358 20.6315789,42.4369474 L20.6315789,29.4736842 L26.5263158,29.4736842 L26.5263158,44.1434737 L26.5263158,44.1434737 Z M29.4736842,29.4736842 L35.3684211,29.4736842 L35.3684211,42.4369474 C33.5705263,43.358 31.5795789,43.9526316 29.4736842,44.1434737 L29.4736842,29.4736842 L29.4736842,29.4736842 Z M11.8557895,29.4736842 L17.6842105,29.4736842 L17.6842105,40.4953684 C14.4421053,37.814 12.2558947,33.8976842 11.8557895,29.4736842 L11.8557895,29.4736842 Z M38.3157895,40.4946316 L38.3157895,29.4736842 L44.1442105,29.4736842 C43.7441053,33.8976842 41.5578947,37.8132632 38.3157895,40.4946316 L38.3157895,40.4946316 Z" id="Shape" sketch:type="MSShapeGroup"></path>
                <path d="M23.422,15.5517895 L23.4227368,15.5510526 C23.4190526,15.5436842 23.4116842,15.5296842 23.4013684,15.5090526 C23.4013684,15.5083158 23.4006316,15.5075789 23.3998947,15.5068421 C23.1670526,15.0647368 21.3175789,11.7887368 17.6834737,11.7887368 C13.8688421,11.7887368 12.0208421,15.3970526 11.9442105,15.5510526 C11.5802105,16.2790526 11.8749474,17.164 12.6036842,17.528 C12.8151579,17.6341053 13.0398947,17.6834737 13.2616842,17.6834737 C13.8025263,17.6834737 14.3227368,17.3850526 14.5806316,16.8685263 C14.5916842,16.8471579 15.7021053,14.7361053 17.6834737,14.7361053 C19.6618947,14.7361053 20.7796842,16.856 20.7907368,16.8773684 L20.7863158,16.8692632 L20.7870526,16.8685263 C21.0287368,17.3511579 21.5268421,17.6834737 22.1037895,17.6834737 C22.918,17.6834737 23.5774737,17.024 23.5774737,16.2097895 C23.5774737,15.9725263 23.52,15.7492632 23.4205263,15.5510526 L23.422,15.5517895 Z" id="Shape" sketch:type="MSShapeGroup"></path>
                <path d="M44.0535789,15.5517895 L44.0543158,15.5510526 C44.0506316,15.5444211 44.044,15.5304211 44.0336842,15.5105263 C44.0329474,15.5090526 44.0322105,15.5075789 44.0314737,15.5061053 C43.7971579,15.0610526 41.9476842,11.7887368 38.3150526,11.7887368 C34.5011579,11.7887368 32.6524211,15.3970526 32.5757895,15.5510526 C32.2117895,16.2790526 32.5065263,17.164 33.2345263,17.528 C33.446,17.6341053 33.6707368,17.6834737 33.8925263,17.6834737 C34.4333684,17.6834737 34.9535789,17.3850526 35.2114737,16.8685263 C35.2225263,16.8471579 36.3336842,14.7361053 38.3143158,14.7361053 C40.2927368,14.7361053 41.4105263,16.856 41.4215789,16.8773684 L41.4171579,16.8692632 L41.4178947,16.8685263 C41.6595789,17.3511579 42.1576842,17.6834737 42.7346316,17.6834737 C43.5488421,17.6834737 44.2083158,17.024 44.2083158,16.2097895 C44.2083158,15.9725263 44.1508421,15.7492632 44.0513684,15.5510526 L44.0535789,15.5517895 Z" id="Shape" sketch:type="MSShapeGroup"></path>
            </g>
        </g>
    </g>
</svg>