<?xml version="1.0" encoding="UTF-8" standalone="no"?>
<svg width="68px" height="70px" viewBox="0 0 68 70" version="1.1" xmlns="http://www.w3.org/2000/svg" xmlns:xlink="http://www.w3.org/1999/xlink" xmlns:sketch="http://www.bohemiancoding.com/sketch/ns">
    <!-- Generator: Sketch 3.3 (11970) - http://www.bohemiancoding.com/sketch -->
    <title>s</title>
    <desc>Created with Sketch.</desc>
    <defs></defs>
    <g id="Welcome" stroke="none" stroke-width="1" fill="none" fill-rule="evenodd" sketch:type="MSPage">
        <g id="3.7-Desktop—Testimonial-form-end-private-client" sketch:type="MSArtboardGroup" transform="translate(-865.348196, -729.000000)">
            <rect id="Rectangle-19" fill="#F0F0F0" sketch:type="MSShapeGroup" x="1" y="0" width="1800" height="1012"></rect>
            <g id="SHARE-+-Oval-77-+-f_logo-+-TEXT-+-Oval-77-+-f_logo-+-Fill-1-+-EMAIL-+-Oval-79-+-Fill-1" sketch:type="MSLayerGroup" transform="translate(758.000000, 733.000000)">
                <g id="TEXT-+-Oval-77-+-f_logo-+-Fill-1" transform="translate(107.397388, 0.000000)" sketch:type="MSShapeGroup">
                    <g id="Oval-77-+-f_logo-+-Fill-1" transform="translate(1.000000, 0.000000)">
                        <g id="Oval-77-+-f_logo" transform="translate(0.000000, 0.000000)" fill="#00B4B1">
                            <ellipse id="Oval-77" cx="32" cy="32" rx="32" ry="32"></ellipse>
                        </g>
                        <path d="M44.3248367,24.5504615 C45.7409073,26.3769212 46.5600597,28.538981 46.5600597,30.856308 C46.5600597,37.4043233 40.0195823,42.712616 31.9525561,42.712616 C31.1764415,42.712616 30.4163057,42.6613171 29.6738608,42.5678392 C26.5351622,45.7027699 22.7904093,46.2636375 19.1677804,46.3462857 L19.1677804,45.5802226 C21.125187,44.6232138 22.8217963,42.8796223 22.8217963,40.8869464 C22.8217963,40.6087925 22.7995401,40.3369085 22.7590223,40.0695844 C19.4553993,37.8967924 17.3421991,34.5771858 17.3421991,30.856308 C17.3421991,24.3082927 23.8826765,19 31.9525561,19 C37.164681,19 41.7395507,21.2159377 44.3248367,24.5504615 Z" id="Fill-1" fill="#FFFFFF"></path>
                    </g>
                </g>
            </g>
        </g>
    </g>
</svg>