<?xml version="1.0" encoding="utf-8"?>
<!-- Generator: Adobe Illustrator 18.0.0, SVG Export Plug-In . SVG Version: 6.00 Build 0)  -->
<!DOCTYPE svg PUBLIC "-//W3C//DTD SVG 1.1//EN" "http://www.w3.org/Graphics/SVG/1.1/DTD/svg11.dtd">
<svg version="1.1" id="Layer_1" xmlns:sketch="http://www.bohemiancoding.com/sketch/ns"
	 xmlns="http://www.w3.org/2000/svg" xmlns:xlink="http://www.w3.org/1999/xlink" x="0px" y="0px" viewBox="0 0 68 70"
	 enable-background="new 0 0 68 70" xml:space="preserve">
<title>s</title>
<desc>Created with Sketch.</desc>
<g id="Welcome" sketch:type="MSPage">
	
		<g id="_x33_.7-Desktop_x2014_Testimonial-form-end-private-client" transform="translate(-865.348196, -729.000000)" sketch:type="MSArtboardGroup">
		<rect id="Rectangle-19" x="1" sketch:type="MSShapeGroup" fill="#F0F0F0" width="1800" height="1012">
		</rect>
		
			<g id="SHARE-_x2B_-Oval-77-_x2B_-f_x5F_logo-_x2B_-TEXT-_x2B_-Oval-77-_x2B_-f_x5F_logo-_x2B_-Fill-1-_x2B_-EMAIL-_x2B_-Oval-79-_x2B_-Fill-1" transform="translate(758.000000, 733.000000)" sketch:type="MSLayerGroup">
			
				<g id="TEXT-_x2B_-Oval-77-_x2B_-f_x5F_logo-_x2B_-Fill-1" transform="translate(107.397388, 0.000000)" sketch:type="MSShapeGroup">
				<g id="Oval-77-_x2B_-f_x5F_logo-_x2B_-Fill-1" transform="translate(1.000000, 0.000000)">
					<g id="Oval-77-_x2B_-f_x5F_logo" transform="translate(0.000000, 0.000000)">
						<ellipse id="Oval-77" fill="#009C9A" cx="32" cy="32" rx="32" ry="32"/>
					</g>
					<path id="Fill-1" fill="#FFFFFF" d="M44.3,24.6c1.4,1.8,2.2,4,2.2,6.3c0,6.5-6.5,11.9-14.6,11.9c-0.8,0-1.5-0.1-2.3-0.1
						c-3.1,3.1-6.9,3.7-10.5,3.8v-0.8c2-1,3.7-2.7,3.7-4.7c0-0.3,0-0.6-0.1-0.8c-3.3-2.2-5.4-5.5-5.4-9.2C17.3,24.3,23.9,19,32,19
						C37.2,19,41.7,21.2,44.3,24.6z"/>
				</g>
			</g>
		</g>
	</g>
</g>
</svg>
