<?xml version="1.0" encoding="utf-8"?>
<!-- Generator: Adobe Illustrator 18.0.0, SVG Export Plug-In . SVG Version: 6.00 Build 0)  -->
<!DOCTYPE svg PUBLIC "-//W3C//DTD SVG 1.1//EN" "http://www.w3.org/Graphics/SVG/1.1/DTD/svg11.dtd">
<svg version="1.1" id="Layer_1" xmlns:sketch="http://www.bohemiancoding.com/sketch/ns"
	 xmlns="http://www.w3.org/2000/svg" xmlns:xlink="http://www.w3.org/1999/xlink" x="0px" y="0px" viewBox="0 0 85 89"
	 enable-background="new 0 0 85 89" xml:space="preserve">
<title>3.2 Desktop—Testimonial form</title>
<desc>Created with Sketch.</desc>
<g id="Imported-Layers" transform="translate(860.681567, 646.000000)" sketch:type="MSLayerGroup">
	<path id="Fill-1" sketch:type="MSShapeGroup" fill="#F05649" d="M-779.1-632c-6,53.9-25.5,73.7-39.8,73.7h-0.1h-0.1
		c-14.3,0-33.8-19.9-39.8-73.7c0,0,15.8-13.3,39.8-13.3h0.1h0.1C-795-645.2-779.1-632-779.1-632"/>
	<path id="Fill-2" sketch:type="MSShapeGroup" fill="#FBCDC9" d="M-819.7-591.9h1.3v5.1h-1.3V-591.9z"/>
	<path id="Fill-3" sketch:type="MSShapeGroup" fill="#FBCDC9" d="M-812-593.9l2.6,4.4l-1.1,0.6l-2.6-4.4L-812-593.9"/>
	<path id="Fill-4" sketch:type="MSShapeGroup" fill="#FBCDC9" d="M-819.1-626.7c-0.2,0-0.4,0-0.6,0v0c-11.1,0.3-21.3,10.1-21.3,21.9
		c0,11.7,10.2,21.6,21.3,21.9v0c0.2,0,0.4,0,0.6,0c12.2,0,22.2-9.8,22.2-21.9C-796.9-616.9-806.8-626.7-819.1-626.7L-819.1-626.7z
		 M-803.6-614.3l0.6,1.1l-4.5,2.5l-0.6-1.1L-803.6-614.3L-803.6-614.3z M-810.5-620.7l1.1,0.7l-2.6,4.4l-1.1-0.7L-810.5-620.7
		L-810.5-620.7z M-819.1-585.9c-0.2,0-0.4,0-0.6,0v0c-8.3-0.3-18.2-8.5-18.2-18.6c0-10,9.9-18.2,18.2-18.6v18.5
		c0,0.2,0.1,0.4,0.3,0.4l16.3,9.7C-806.5-589.3-812.4-585.9-819.1-585.9L-819.1-585.9z M-806-605.4h5.2v1.3h-5.2V-605.4z"/>
	<path id="Fill-5" sketch:type="MSShapeGroup" fill="#FBCDC9" d="M-826.9-588.9l-1.1-0.6l2.6-4.4l1.1,0.6L-826.9-588.9"/>
	<path id="Fill-6" sketch:type="MSShapeGroup" fill="#FBCDC9" d="M-829.9-610.4l-4.4-2.5l0.6-1.1l4.4,2.5L-829.9-610.4"/>
	<path id="Fill-7" sketch:type="MSShapeGroup" fill="#FBCDC9" d="M-825.5-615.3l-2.5-4.4l1.1-0.6l2.5,4.4L-825.5-615.3"/>
	<path id="Fill-8" sketch:type="MSShapeGroup" fill="#FBCDC9" d="M-836.5-605.2h5.1v1.3h-5.1V-605.2z"/>
	<path id="Fill-9" sketch:type="MSShapeGroup" fill="#FBCDC9" d="M-833.8-595.2l-0.6-1.1l4.4-2.5l0.6,1.1L-833.8-595.2"/>
</g>
</svg>
