<?xml version="1.0" encoding="utf-8"?>
<!-- Generator: Adobe Illustrator 18.0.0, SVG Export Plug-In . SVG Version: 6.00 Build 0)  -->
<!DOCTYPE svg PUBLIC "-//W3C//DTD SVG 1.1//EN" "http://www.w3.org/Graphics/SVG/1.1/DTD/svg11.dtd">
<svg version="1.1" id="Layer_1" xmlns:sketch="http://www.bohemiancoding.com/sketch/ns"
	 xmlns="http://www.w3.org/2000/svg" xmlns:xlink="http://www.w3.org/1999/xlink" x="0px" y="0px" viewBox="0 0 80 89"
	 enable-background="new 0 0 80 89" xml:space="preserve">
<g id="Imported-Layers-4" transform="translate(1046.000000, 651.000000)" sketch:type="MSLayerGroup">
	<path id="Fill-1" sketch:type="MSShapeGroup" fill="#B7684D" d="M-970.1-602.8c3,6.6,3.5,24.4-3.9,30.8c-7.4,6.5-21.5,5.8-24.8,6.6
		c-2.9,0.7-5.3,3.5-5.8,4.1c0,0-0.1,0-0.1,0.1h0c0,0,0,0,0,0c-0.5-0.6-2.8-3.4-5.8-4.1c-3.3-0.8-17.4-0.2-24.8-6.6
		c-7.4-6.4-6.9-24.3-3.9-30.8c3-6.6,6.6-23.7-2.4-27.9l6.5-12.8c0,0,13.1-1.1,30.4-1.1h0.1c17.4,0,30.5,1.1,30.5,1.1l6.5,12.9
		C-976.7-626.5-973.1-609.4-970.1-602.8"/>
	<path id="Fill-2" sketch:type="MSShapeGroup" fill="#EAD2CA" d="M-990.7-611.1c-1.5,0-2.8,1.2-2.8,2.7v10.7h-1.1v-29.5
		c0-1.5-1.2-2.7-2.8-2.7c-1.5,0-2.8,1.2-2.8,2.7v21.1h-1.1v-24.3c0-1.5-1.2-2.7-2.8-2.7c-0.1,0-0.1,0-0.2,0
		c-1.4,0.1-2.5,1.2-2.6,2.7v24.3h-1.1v-21.1c0-1.5-1.2-2.7-2.7-2.7c-1.5,0-2.8,1.2-2.8,2.7v22.7h-1.1v-12.8c0-1.5-1.2-2.7-2.8-2.7
		c-1.5,0-2.8,1.2-2.8,3.6v22.7c0,7,7.1,14.1,15.8,14.2h0.2c8.8,0,16-7.1,16-15.8v-12.9C-987.9-610.7-989.2-611.1-990.7-611.1"/>
</g>
</svg>
