<?xml version="1.0" encoding="UTF-8" standalone="no"?>
<svg width="75px" height="84px" viewBox="0 0 75 84" version="1.1" xmlns="http://www.w3.org/2000/svg" xmlns:xlink="http://www.w3.org/1999/xlink" xmlns:sketch="http://www.bohemiancoding.com/sketch/ns">
    <!-- Generator: Sketch 3.3 (11970) - http://www.bohemiancoding.com/sketch -->
    <title>Imported Layers 4</title>
    <desc>Created with Sketch.</desc>
    <defs></defs>
    <g id="Welcome" stroke="none" stroke-width="1" fill="none" fill-rule="evenodd" sketch:type="MSPage">
        <g id="3.2-Desktop—Testimonial-form" sketch:type="MSArtboardGroup" transform="translate(-1046.000000, -652.000000)">
            <rect id="Rectangle-17" fill="#F0F0F0" sketch:type="MSShapeGroup" x="0" y="166" width="1800" height="1495"></rect>
            <g id="Imported-Layers-4" sketch:type="MSLayerGroup" transform="translate(1046.000000, 651.000000)">
                <path d="M71.93125,43.172069 C74.95625,49.7544828 75.41875,67.6086207 68.0125,74.0172414 C60.578125,80.4848276 46.546875,79.8548276 43.20625,80.6275862 C40.26875,81.3134483 37.90625,84.1189655 37.44375,84.717931 C37.415625,84.7458621 37.3875,84.7458621 37.3875,84.7737931 L37.359375,84.7737931 C37.359375,84.7458621 37.359375,84.7458621 37.33125,84.7458621 C36.86875,84.1437931 34.50625,81.3134483 31.56875,80.6244828 C28.25625,79.8517241 14.196875,80.4537931 6.790625,74.0141379 C-0.6125,67.6055172 -0.153125,49.7513793 2.84375,43.1689655 C5.840625,36.5586207 9.471875,19.5051724 0.48125,15.272069 L6.934375,2.4237931 C6.934375,2.4237931 20.015625,1.36551724 37.33125,1.36551724 L37.3875,1.36551724 C54.759375,1.36551724 67.840625,2.4237931 67.840625,2.4237931 L74.321875,15.3 C65.30625,19.5082759 68.9375,36.5896552 71.93125,43.172069" id="Fill-1" fill="#B7684D" sketch:type="MSShapeGroup"></path>
                <path d="M51.290625,34.92 C49.78125,34.92 48.534375,36.1303448 48.534375,37.6293103 L48.534375,48.3175862 L47.4375,48.3175862 L47.4375,18.7851724 C47.4375,17.2862069 46.190625,16.047931 44.68125,16.047931 C43.171875,16.047931 41.925,17.2862069 41.925,18.7851724 L41.925,39.8358621 L40.828125,39.8358621 L40.828125,15.4862069 C40.828125,13.9841379 39.615625,12.7768966 38.071875,12.7768966 C38.0125,12.7768966 37.953125,12.7768966 37.89375,12.8048276 C36.471875,12.8606897 35.34375,14.04 35.340625,15.4831034 L35.340625,39.8327586 L34.2125,39.8327586 L34.2125,18.782069 C34.2125,17.2831034 32.99375,16.0448276 31.484375,16.0448276 C29.940625,16.0448276 28.728125,17.2831034 28.728125,18.782069 L28.728125,41.4527586 L27.63125,41.4527586 L27.63125,28.6168966 C27.63125,27.117931 26.384375,25.8796552 24.875,25.8796552 C23.33125,25.8796552 22.11875,27.117931 22.11875,29.4424138 L22.11875,52.1410345 C22.11875,59.1765517 29.178125,66.2431034 37.890625,66.33 L38.06875,66.33 C46.90625,66.33 54.05,59.2355172 54.05,50.49 L54.05,37.6231034 C54.053125,35.2986207 52.809375,34.9168966 51.290625,34.92" id="Fill-2" fill="#EAD2CA" sketch:type="MSShapeGroup"></path>
            </g>
        </g>
    </g>
</svg>